<svg xmlns="http://www.w3.org/2000/svg" viewBox="0 0 1339.664 704.981"><defs><style>.cls-1{fill:none;stroke-linecap:round;}.cls-1,.cls-10{stroke:#000;stroke-miterlimit:10;stroke-width:3px;}.cls-2{fill:#148fcf;}.cls-3,.cls-4,.cls-5{fill:#efab1f;}.cls-4{opacity:0.7;}.cls-5{opacity:0.4;}.cls-6{fill:#942582;}.cls-7{fill:#1d1d1b;}.cls-8{fill:#e35500;}.cls-9{fill:#4fb81c;}.cls-10{fill:#fff;}</style></defs><g id="Ebene_2" data-name="Ebene 2"><g id="Layer_1" data-name="Layer 1"><path d="M16.785,702.575V681.848H18.9l11.43,17.09h.055v-17.09h1.873v20.727H30.5l-11.785-17.61h-.055v17.61Z" transform="translate(0 -3.254)"/><path d="M36.322,695.178a9.177,9.177,0,0,1,.574-3.4,6.991,6.991,0,0,1,1.5-2.379,6.214,6.214,0,0,1,2.072-1.4,6.106,6.106,0,0,1,2.317-.464,5.807,5.807,0,0,1,2.4.492,5.2,5.2,0,0,1,1.9,1.456,7.141,7.141,0,0,1,1.264,2.406,10.809,10.809,0,0,1,.465,3.316v.369H38.25a7.229,7.229,0,0,0,.376,2.431,5.544,5.544,0,0,0,1.005,1.786,4.246,4.246,0,0,0,3.267,1.5,4.806,4.806,0,0,0,2.7-.694,6.727,6.727,0,0,0,1.893-2.013l1.2.961a7.757,7.757,0,0,1-2.4,2.448,6.457,6.457,0,0,1-3.521.9,6.32,6.32,0,0,1-2.461-.492,5.646,5.646,0,0,1-2.054-1.477,7.489,7.489,0,0,1-1.409-2.406A9.568,9.568,0,0,1,36.322,695.178Zm1.955-1.148h8.655a9.489,9.489,0,0,0-.376-1.932,4.981,4.981,0,0,0-.793-1.567,3.483,3.483,0,0,0-1.272-1.031,3.966,3.966,0,0,0-1.743-.365,4.119,4.119,0,0,0-1.545.3,4.006,4.006,0,0,0-1.347.9,5.1,5.1,0,0,0-1.025,1.519A7.073,7.073,0,0,0,38.277,694.03Z" transform="translate(0 -3.254)"/><path d="M50.883,689.477v-1.654h2.584v-5.291h1.927v5.291h3.829v1.654H55.394v9.267a2.906,2.906,0,0,0,.479,1.8,2.225,2.225,0,0,0,1.846.624h.827a2.5,2.5,0,0,0,.718-.1V702.6c-.228.036-.52.073-.875.109a10.058,10.058,0,0,1-1.039.055,4.247,4.247,0,0,1-3-.854,3.746,3.746,0,0,1-.882-2.783v-9.652Z" transform="translate(0 -3.254)"/><path d="M60.754,687.823h2.023l2.04,7.3q.2.7.363,1.3c.111.4.222.8.334,1.2s.224.8.337,1.211.237.844.367,1.309h.055q.194-.792.367-1.408t.311-1.19q.138-.573.311-1.148t.366-1.271l2.045-7.3h1.783l2,7.439q.18.672.337,1.253t.307,1.141l.313,1.161c.107.4.226.837.353,1.312h.054q.2-.751.364-1.338t.3-1.134c.095-.365.2-.733.3-1.107s.229-.782.364-1.228l2.12-7.5h1.873l-4.525,14.752H73.838L70.5,690.448h-.055l-3.4,12.127H65.28Z" transform="translate(0 -3.254)"/><path d="M81.9,695.206a9.361,9.361,0,0,1,.532-3.275,7.165,7.165,0,0,1,1.442-2.406,6,6,0,0,1,2.131-1.483,6.7,6.7,0,0,1,2.588-.506,6.614,6.614,0,0,1,2.559.506,6.031,6.031,0,0,1,2.128,1.483,7.135,7.135,0,0,1,1.443,2.406,10.31,10.31,0,0,1,0,6.556,7.224,7.224,0,0,1-1.443,2.406,6,6,0,0,1-2.128,1.49,6.729,6.729,0,0,1-5.12,0,6.1,6.1,0,0,1-2.144-1.49,7.12,7.12,0,0,1-1.456-2.406A9.349,9.349,0,0,1,81.9,695.206Zm1.928-.028a8.914,8.914,0,0,0,.294,2.324,5.755,5.755,0,0,0,.9,1.921,4.533,4.533,0,0,0,1.5,1.32,4.623,4.623,0,0,0,4.067.041,4.453,4.453,0,0,0,1.485-1.251,5.7,5.7,0,0,0,.939-1.9,8.781,8.781,0,0,0,.321-2.454,8.376,8.376,0,0,0-.308-2.29,6.025,6.025,0,0,0-.9-1.9,4.5,4.5,0,0,0-1.472-1.306,4.163,4.163,0,0,0-2.06-.492,4.343,4.343,0,0,0-2.006.451,4.431,4.431,0,0,0-1.5,1.244,5.62,5.62,0,0,0-.939,1.9A8.56,8.56,0,0,0,83.832,695.178Z" transform="translate(0 -3.254)"/><path d="M98.912,702.575V687.823h1.928v2.936h.054a7.5,7.5,0,0,1,2.277-2.307,6.413,6.413,0,0,1,3.575-.916h.342l-.192,1.818h-.287a1.184,1.184,0,0,1-.191-.014,1.054,1.054,0,0,0-.109-.013,5.506,5.506,0,0,0-3.213.955A6.988,6.988,0,0,0,100.84,693v9.578Z" transform="translate(0 -3.254)"/><path d="M109.973,702.575V681.848H111.9V695.6l7.028-7.779H121.2l-4.812,5.209,5.4,9.543h-2.1l-4.58-8.067-3.2,3.418v4.649Z" transform="translate(0 -3.254)"/><path d="M124.916,684.405v-2.078h2.051v2.078Zm.055,18.17V687.823H126.9v14.752Z" transform="translate(0 -3.254)"/><path d="M131.533,702.575V687.823h1.928v2.324a10.9,10.9,0,0,1,2.468-1.839,6.444,6.444,0,0,1,3.165-.772,4.35,4.35,0,0,1,3.288,1.148,4.478,4.478,0,0,1,1.1,3.227v10.664h-1.927V692.266a3.292,3.292,0,0,0-.711-2.317,2.924,2.924,0,0,0-2.229-.759,5.4,5.4,0,0,0-2.659.684,12.2,12.2,0,0,0-2.495,1.886v10.815Z" transform="translate(0 -3.254)"/><path d="M146.148,704.509a2.985,2.985,0,0,1,.725-2,4.841,4.841,0,0,1,2.023-1.343,1.894,1.894,0,0,1-1.285-1.88,1.843,1.843,0,0,1,.481-1.229,4.183,4.183,0,0,1,1.283-.969,4.771,4.771,0,0,1-1.654-1.77,5.459,5.459,0,0,1-.144-4.621,5.031,5.031,0,0,1,1.217-1.675,5.657,5.657,0,0,1,1.839-1.094,6.6,6.6,0,0,1,2.324-.4,6.674,6.674,0,0,1,2.349.4,5.485,5.485,0,0,1,1.843,1.121,6.982,6.982,0,0,1,1.569-.854,7.229,7.229,0,0,1,1.827-.486v1.928a8.833,8.833,0,0,0-1.343.108,5.712,5.712,0,0,0-1.344.376,4.6,4.6,0,0,1,.855,2.788,5.03,5.03,0,0,1-.448,2.149,4.936,4.936,0,0,1-1.215,1.636,5.275,5.275,0,0,1-1.82,1.034,7,7,0,0,1-2.273.358,6.638,6.638,0,0,1-2.379-.41,2.683,2.683,0,0,0-.854.526.974.974,0,0,0-.322.729.787.787,0,0,0,.459.728,5.453,5.453,0,0,0,1.72.4l3.222.246a8.142,8.142,0,0,1,3.869,1.114,2.979,2.979,0,0,1,1.312,2.625,3.259,3.259,0,0,1-.5,1.792,4.026,4.026,0,0,1-1.395,1.312,7.524,7.524,0,0,1-2.145.8,12.664,12.664,0,0,1-2.764.281,10.843,10.843,0,0,1-5.325-1A3.051,3.051,0,0,1,146.148,704.509Zm1.873-.24a1.954,1.954,0,0,0,1.279,1.8,9.827,9.827,0,0,0,4.067.625,7.665,7.665,0,0,0,3.541-.679,2.022,2.022,0,0,0,1.285-1.792,1.748,1.748,0,0,0-.917-1.6,7.576,7.576,0,0,0-3.092-.706l-2.92-.239-.782-.083a3.848,3.848,0,0,0-1.859,1.116A2.392,2.392,0,0,0,148.021,704.269Zm.985-11.388a3.55,3.55,0,0,0,1.08,2.721,4.656,4.656,0,0,0,5.776.016,3.5,3.5,0,0,0,1.06-2.679,3.82,3.82,0,0,0-1.032-2.824,4.631,4.631,0,0,0-5.831,0A3.7,3.7,0,0,0,149.006,692.881Z" transform="translate(0 -3.254)"/><path d="M223.164,697.481l1.791-.642a5.755,5.755,0,0,0,5.886,4.369,6.306,6.306,0,0,0,3.744-1,3.206,3.206,0,0,0,1.39-2.757,4.24,4.24,0,0,0-.226-1.434,2.81,2.81,0,0,0-.843-1.16,7.2,7.2,0,0,0-1.67-1.024,23.8,23.8,0,0,0-2.71-1.024q-1.671-.531-2.929-1.044a8.083,8.083,0,0,1-2.1-1.2,4.493,4.493,0,0,1-1.252-1.584,5.156,5.156,0,0,1-.415-2.177,4.683,4.683,0,0,1,.476-2.094,5.259,5.259,0,0,1,1.323-1.688,6.352,6.352,0,0,1,2.023-1.14,7.712,7.712,0,0,1,2.6-.419,9.07,9.07,0,0,1,2.614.351,6.676,6.676,0,0,1,2.032.982,6.444,6.444,0,0,1,1.493,1.518,7.6,7.6,0,0,1,.978,1.93l-1.682.778a5.7,5.7,0,0,0-2.142-2.873,6.761,6.761,0,0,0-5.19-.6,4.567,4.567,0,0,0-1.4.709,3.028,3.028,0,0,0-.884,1.073,3,3,0,0,0-.307,1.337,3.532,3.532,0,0,0,.28,1.475,2.955,2.955,0,0,0,.959,1.119,7.833,7.833,0,0,0,1.766.942q1.087.438,2.745.956a22.694,22.694,0,0,1,2.833,1.064,8.167,8.167,0,0,1,2,1.276,4.767,4.767,0,0,1,1.2,1.639,5.412,5.412,0,0,1,.4,2.177,4.982,4.982,0,0,1-.548,2.336,5.239,5.239,0,0,1-1.5,1.775,7.207,7.207,0,0,1-2.285,1.133,9.73,9.73,0,0,1-2.867.41,7.977,7.977,0,0,1-4.9-1.468A7.342,7.342,0,0,1,223.164,697.481Z" transform="translate(0 -3.254)"/><path d="M240.828,695.206a9.361,9.361,0,0,1,.532-3.275,7.165,7.165,0,0,1,1.442-2.406,6,6,0,0,1,2.131-1.483,6.7,6.7,0,0,1,2.587-.506,6.616,6.616,0,0,1,2.56.506,6.04,6.04,0,0,1,2.128,1.483,7.151,7.151,0,0,1,1.443,2.406,10.328,10.328,0,0,1,0,6.556,7.241,7.241,0,0,1-1.443,2.406,6.008,6.008,0,0,1-2.128,1.49,6.729,6.729,0,0,1-5.12,0,6.107,6.107,0,0,1-2.145-1.49,7.134,7.134,0,0,1-1.455-2.406A9.349,9.349,0,0,1,240.828,695.206Zm1.928-.028a8.872,8.872,0,0,0,.294,2.324,5.755,5.755,0,0,0,.9,1.921,4.533,4.533,0,0,0,1.5,1.32,4.623,4.623,0,0,0,4.067.041A4.453,4.453,0,0,0,251,699.533a5.683,5.683,0,0,0,.938-1.9,8.743,8.743,0,0,0,.322-2.454,8.376,8.376,0,0,0-.308-2.29,6.025,6.025,0,0,0-.9-1.9,4.5,4.5,0,0,0-1.472-1.306,4.165,4.165,0,0,0-2.061-.492,4.336,4.336,0,0,0-2.005.451,4.431,4.431,0,0,0-1.5,1.244,5.6,5.6,0,0,0-.939,1.9A8.56,8.56,0,0,0,242.756,695.178Z" transform="translate(0 -3.254)"/><path d="M256.072,689.477v-1.654h2.584v-2.215q0-3.787,4.225-3.787c.182,0,.383,0,.6.013a3.288,3.288,0,0,1,.52.054v1.587a4.136,4.136,0,0,0-.458-.041c-.2-.009-.371-.014-.526-.014a3.041,3.041,0,0,0-1.75.468,1.887,1.887,0,0,0-.684,1.679v2.256h3.254v1.654h-3.254v13.1h-1.928v-13.1Z" transform="translate(0 -3.254)"/><path d="M265.232,689.477v-1.654h2.584v-5.291h1.928v5.291h3.828v1.654h-3.828v9.267a2.9,2.9,0,0,0,.479,1.8,2.223,2.223,0,0,0,1.845.624h.827a2.5,2.5,0,0,0,.718-.1V702.6c-.227.036-.519.073-.875.109a10.029,10.029,0,0,1-1.039.055,4.251,4.251,0,0,1-3-.854,3.746,3.746,0,0,1-.882-2.783v-9.652Z" transform="translate(0 -3.254)"/><path d="M275.1,687.823h2.024l2.04,7.3q.2.7.362,1.3c.112.4.223.8.334,1.2s.225.8.338,1.211l.366,1.309h.056q.194-.792.366-1.408t.312-1.19q.138-.573.31-1.148c.115-.383.238-.807.366-1.271l2.045-7.3h1.784l2,7.439q.181.672.337,1.253c.1.387.206.768.308,1.141s.2.761.313,1.161.225.837.353,1.312h.054q.2-.751.364-1.338t.3-1.134c.094-.365.2-.733.3-1.107s.23-.782.365-1.228l2.12-7.5H294.5l-4.526,14.752h-1.791l-3.336-12.127H284.8l-3.4,12.127H279.63Z" transform="translate(0 -3.254)"/><path d="M296.2,699.12a4.2,4.2,0,0,1,.506-2.028,4.988,4.988,0,0,1,1.682-1.719,12.468,12.468,0,0,1,3.083-1.4,30.471,30.471,0,0,1,4.723-1.037v-.758a3.087,3.087,0,0,0-.764-2.292,3.045,3.045,0,0,0-2.225-.751,6.586,6.586,0,0,0-3.046.661,12.5,12.5,0,0,0-2.458,1.68l-1.047-1.212a11.831,11.831,0,0,1,2.941-1.974,8.8,8.8,0,0,1,3.788-.754A4.656,4.656,0,0,1,307,688.779a4.963,4.963,0,0,1,1.123,3.455v6.695a20.845,20.845,0,0,0,.1,2.213,5.759,5.759,0,0,0,.314,1.433h-1.994c-.092-.322-.172-.644-.24-.97a5.514,5.514,0,0,1-.1-1.147,9.233,9.233,0,0,1-2.709,1.772,8.033,8.033,0,0,1-3.1.591,4.458,4.458,0,0,1-3.083-.981A3.455,3.455,0,0,1,296.2,699.12Zm1.928-.245a2.146,2.146,0,0,0,.71,1.759,2.99,2.99,0,0,0,1.965.587,6.887,6.887,0,0,0,2.907-.614,9.1,9.1,0,0,0,2.484-1.7v-4.585a30.043,30.043,0,0,0-3.924.88,10.957,10.957,0,0,0-2.47,1.057,3.68,3.68,0,0,0-1.3,1.229A2.754,2.754,0,0,0,298.127,698.875Z" transform="translate(0 -3.254)"/><path d="M312.414,702.575V687.823h1.928v2.936h.054a7.5,7.5,0,0,1,2.277-2.307,6.413,6.413,0,0,1,3.575-.916h.342l-.192,1.818h-.287a1.184,1.184,0,0,1-.191-.014,1.032,1.032,0,0,0-.11-.013,5.5,5.5,0,0,0-3.212.955A6.988,6.988,0,0,0,314.342,693v9.578Z" transform="translate(0 -3.254)"/><path d="M321.82,695.178a9.177,9.177,0,0,1,.574-3.4,6.991,6.991,0,0,1,1.5-2.379,6.214,6.214,0,0,1,2.072-1.4,6.106,6.106,0,0,1,2.317-.464,5.807,5.807,0,0,1,2.4.492,5.2,5.2,0,0,1,1.9,1.456,7.141,7.141,0,0,1,1.264,2.406,10.809,10.809,0,0,1,.465,3.316v.369H323.748a7.229,7.229,0,0,0,.376,2.431,5.544,5.544,0,0,0,1,1.786,4.246,4.246,0,0,0,3.267,1.5,4.806,4.806,0,0,0,2.7-.694,6.727,6.727,0,0,0,1.893-2.013l1.2.961a7.757,7.757,0,0,1-2.4,2.448,6.454,6.454,0,0,1-3.521.9,6.32,6.32,0,0,1-2.461-.492,5.646,5.646,0,0,1-2.054-1.477,7.469,7.469,0,0,1-1.408-2.406A9.544,9.544,0,0,1,321.82,695.178Zm1.955-1.148h8.655a9.489,9.489,0,0,0-.376-1.932,4.981,4.981,0,0,0-.793-1.567,3.483,3.483,0,0,0-1.272-1.031,3.966,3.966,0,0,0-1.743-.365,4.119,4.119,0,0,0-1.545.3,4.006,4.006,0,0,0-1.347.9,5.1,5.1,0,0,0-1.025,1.519A7.073,7.073,0,0,0,323.775,694.03Z" transform="translate(0 -3.254)"/><path d="M343.381,699.12a4.2,4.2,0,0,1,.506-2.028,4.993,4.993,0,0,1,1.681-1.719,12.485,12.485,0,0,1,3.083-1.4,30.513,30.513,0,0,1,4.724-1.037v-.758a3.083,3.083,0,0,0-.765-2.292,3.043,3.043,0,0,0-2.224-.751,6.583,6.583,0,0,0-3.046.661,12.472,12.472,0,0,0-2.458,1.68l-1.047-1.212a11.826,11.826,0,0,1,2.94-1.974,8.807,8.807,0,0,1,3.788-.754,4.657,4.657,0,0,1,3.617,1.243,4.963,4.963,0,0,1,1.123,3.455v6.695a21.155,21.155,0,0,0,.1,2.213,5.755,5.755,0,0,0,.315,1.433h-1.994c-.092-.322-.172-.644-.241-.97a5.589,5.589,0,0,1-.1-1.147,9.246,9.246,0,0,1-2.709,1.772,8.034,8.034,0,0,1-3.106.591,4.46,4.46,0,0,1-3.083-.981A3.458,3.458,0,0,1,343.381,699.12Zm1.928-.245a2.148,2.148,0,0,0,.709,1.759,2.991,2.991,0,0,0,1.965.587,6.892,6.892,0,0,0,2.908-.614,9.132,9.132,0,0,0,2.484-1.7v-4.585a30,30,0,0,0-3.924.88,10.988,10.988,0,0,0-2.471,1.057,3.684,3.684,0,0,0-1.3,1.229A2.754,2.754,0,0,0,345.309,698.875Z" transform="translate(0 -3.254)"/><path d="M359.6,708.18V687.823h1.927v2.093a10.27,10.27,0,0,1,2.078-1.663,5.394,5.394,0,0,1,2.858-.717,6.011,6.011,0,0,1,2.379.478,5.23,5.23,0,0,1,1.928,1.417,6.971,6.971,0,0,1,1.285,2.381,12.168,12.168,0,0,1,0,6.754,6.7,6.7,0,0,1-1.313,2.377,5.317,5.317,0,0,1-1.982,1.406,6.443,6.443,0,0,1-2.475.472,5.452,5.452,0,0,1-2.6-.625,8.954,8.954,0,0,1-2.161-1.618v7.6Zm1.927-9.368a9.089,9.089,0,0,0,2.2,1.793,4.838,4.838,0,0,0,2.392.616,4.545,4.545,0,0,0,1.812-.355,3.677,3.677,0,0,0,1.415-1.082,5.337,5.337,0,0,0,.923-1.862,9.657,9.657,0,0,0,.334-2.71,9.153,9.153,0,0,0-.348-2.669,5.354,5.354,0,0,0-.971-1.881,3.983,3.983,0,0,0-1.429-1.11,4.2,4.2,0,0,0-1.736-.362,4.615,4.615,0,0,0-2.447.657,10.62,10.62,0,0,0-2.147,1.779Z" transform="translate(0 -3.254)"/><path d="M376.193,708.18V687.823h1.928v2.093a10.27,10.27,0,0,1,2.078-1.663,5.389,5.389,0,0,1,2.858-.717,6.01,6.01,0,0,1,2.378.478,5.214,5.214,0,0,1,1.928,1.417,6.954,6.954,0,0,1,1.285,2.381,12.144,12.144,0,0,1,0,6.754,6.688,6.688,0,0,1-1.312,2.377,5.321,5.321,0,0,1-1.983,1.406,6.435,6.435,0,0,1-2.474.472,5.456,5.456,0,0,1-2.6-.625,8.949,8.949,0,0,1-2.16-1.618v7.6Zm1.928-9.368a9.1,9.1,0,0,0,2.2,1.793,4.839,4.839,0,0,0,2.393.616,4.536,4.536,0,0,0,1.811-.355,3.662,3.662,0,0,0,1.415-1.082,5.3,5.3,0,0,0,.923-1.862,9.618,9.618,0,0,0,.335-2.71,9.153,9.153,0,0,0-.348-2.669,5.354,5.354,0,0,0-.971-1.881,3.992,3.992,0,0,0-1.429-1.11,4.2,4.2,0,0,0-1.736-.362,4.612,4.612,0,0,0-2.447.657,10.62,10.62,0,0,0-2.147,1.779Z" transform="translate(0 -3.254)"/><path d="M392.955,702.575V681.848h1.928v20.727Z" transform="translate(0 -3.254)"/><path d="M399.627,684.405v-2.078h2.051v2.078Zm.055,18.17V687.823h1.927v14.752Z" transform="translate(0 -3.254)"/><path d="M405.4,695.206a9.508,9.508,0,0,1,.557-3.425,7.014,7.014,0,0,1,1.477-2.393,5.723,5.723,0,0,1,2.116-1.4,6.823,6.823,0,0,1,2.427-.451,6.25,6.25,0,0,1,2.085.321,5.057,5.057,0,0,1,1.579.882,6.169,6.169,0,0,1,1.162,1.292,8.448,8.448,0,0,1,.82,1.538l-1.641.724a6.016,6.016,0,0,0-1.565-2.3,3.712,3.712,0,0,0-2.5-.8,4.684,4.684,0,0,0-1.648.308,3.792,3.792,0,0,0-1.483,1.025,5.381,5.381,0,0,0-1.06,1.859,8.48,8.48,0,0,0-.4,2.8,8.687,8.687,0,0,0,.349,2.584,5.822,5.822,0,0,0,.95,1.887,4.144,4.144,0,0,0,1.429,1.176,3.993,3.993,0,0,0,1.8.41,3.927,3.927,0,0,0,2.5-.745,6.667,6.667,0,0,0,1.743-2.4l1.558.67a11.182,11.182,0,0,1-.984,1.7,5.718,5.718,0,0,1-1.265,1.306,5.6,5.6,0,0,1-1.613.827,6.416,6.416,0,0,1-2.016.294,6,6,0,0,1-2.42-.506,5.836,5.836,0,0,1-2.041-1.49,7.3,7.3,0,0,1-1.4-2.406A9.6,9.6,0,0,1,405.4,695.206Z" transform="translate(0 -3.254)"/><path d="M419.93,699.12a4.212,4.212,0,0,1,.5-2.028,5,5,0,0,1,1.682-1.719,12.485,12.485,0,0,1,3.083-1.4,30.513,30.513,0,0,1,4.724-1.037v-.758a3.083,3.083,0,0,0-.765-2.292,3.045,3.045,0,0,0-2.225-.751,6.582,6.582,0,0,0-3.045.661,12.472,12.472,0,0,0-2.458,1.68l-1.047-1.212a11.826,11.826,0,0,1,2.94-1.974,8.807,8.807,0,0,1,3.788-.754,4.656,4.656,0,0,1,3.616,1.243,4.963,4.963,0,0,1,1.123,3.455v6.695a21.117,21.117,0,0,0,.1,2.213,5.755,5.755,0,0,0,.315,1.433h-1.994c-.092-.322-.172-.644-.241-.97a5.589,5.589,0,0,1-.1-1.147,9.246,9.246,0,0,1-2.709,1.772,8.038,8.038,0,0,1-3.106.591,4.46,4.46,0,0,1-3.083-.981A3.458,3.458,0,0,1,419.93,699.12Zm1.927-.245a2.149,2.149,0,0,0,.71,1.759,2.991,2.991,0,0,0,1.965.587,6.884,6.884,0,0,0,2.907-.614,9.122,9.122,0,0,0,2.485-1.7v-4.585a30,30,0,0,0-3.924.88,10.967,10.967,0,0,0-2.471,1.057,3.688,3.688,0,0,0-1.3,1.229A2.754,2.754,0,0,0,421.857,698.875Z" transform="translate(0 -3.254)"/><path d="M434.572,689.477v-1.654h2.584v-5.291h1.928v5.291h3.828v1.654h-3.828v9.267a2.906,2.906,0,0,0,.478,1.8,2.226,2.226,0,0,0,1.846.624h.827a2.5,2.5,0,0,0,.718-.1V702.6c-.227.036-.519.073-.875.109a10.029,10.029,0,0,1-1.039.055,4.251,4.251,0,0,1-3-.854,3.746,3.746,0,0,1-.882-2.783v-9.652Z" transform="translate(0 -3.254)"/><path d="M446.48,684.405v-2.078h2.051v2.078Zm.055,18.17V687.823h1.928v14.752Z" transform="translate(0 -3.254)"/><path d="M452.25,695.206a9.361,9.361,0,0,1,.532-3.275,7.165,7.165,0,0,1,1.442-2.406,6,6,0,0,1,2.13-1.483,6.707,6.707,0,0,1,2.588-.506,6.619,6.619,0,0,1,2.56.506,6.049,6.049,0,0,1,2.128,1.483,7.151,7.151,0,0,1,1.443,2.406,10.328,10.328,0,0,1,0,6.556,7.241,7.241,0,0,1-1.443,2.406,6.017,6.017,0,0,1-2.128,1.49,6.729,6.729,0,0,1-5.12,0,6.1,6.1,0,0,1-2.145-1.49,7.134,7.134,0,0,1-1.455-2.406A9.349,9.349,0,0,1,452.25,695.206Zm1.928-.028a8.872,8.872,0,0,0,.294,2.324,5.755,5.755,0,0,0,.9,1.921,4.514,4.514,0,0,0,1.5,1.32,4.621,4.621,0,0,0,4.066.041,4.446,4.446,0,0,0,1.486-1.251,5.7,5.7,0,0,0,.938-1.9,8.743,8.743,0,0,0,.322-2.454,8.376,8.376,0,0,0-.308-2.29,6.025,6.025,0,0,0-.9-1.9A4.5,4.5,0,0,0,461,689.682a4.167,4.167,0,0,0-2.061-.492,4.343,4.343,0,0,0-2.006.451,4.45,4.45,0,0,0-1.5,1.244,5.618,5.618,0,0,0-.938,1.9A8.56,8.56,0,0,0,454.178,695.178Z" transform="translate(0 -3.254)"/><path d="M469.258,702.575V687.823h1.927v2.324a10.925,10.925,0,0,1,2.468-1.839,6.45,6.45,0,0,1,3.165-.772,4.349,4.349,0,0,1,3.288,1.148,4.475,4.475,0,0,1,1.1,3.227v10.664h-1.928V692.266a3.287,3.287,0,0,0-.711-2.317,2.921,2.921,0,0,0-2.228-.759,5.4,5.4,0,0,0-2.659.684,12.18,12.18,0,0,0-2.5,1.886v10.815Z" transform="translate(0 -3.254)"/><path d="M484.488,700.236l1.231-1.122a6.566,6.566,0,0,0,1.948,1.559,5.636,5.636,0,0,0,2.645.576,5.09,5.09,0,0,0,2.872-.666,2.187,2.187,0,0,0,.97-1.925,2.031,2.031,0,0,0-.957-1.824,10.494,10.494,0,0,0-3.1-1.125c-.819-.253-1.556-.484-2.213-.688a5.214,5.214,0,0,1-1.629-.8,3.188,3.188,0,0,1-.964-1.161,3.8,3.8,0,0,1-.321-1.652,3.406,3.406,0,0,1,.335-1.485,3.632,3.632,0,0,1,.977-1.238,4.809,4.809,0,0,1,1.566-.842,6.722,6.722,0,0,1,2.126-.307,7.844,7.844,0,0,1,3.2.574,7.532,7.532,0,0,1,2.269,1.559l-1.093,1.287a6.554,6.554,0,0,0-1.9-1.328,5.661,5.661,0,0,0-2.406-.493,5.182,5.182,0,0,0-1.477.182,2.861,2.861,0,0,0-.977.485,1.99,1.99,0,0,0-.561.687,1.828,1.828,0,0,0-.184.8,1.786,1.786,0,0,0,.832,1.595,8.987,8.987,0,0,0,2.77.99l2.416.737a5.545,5.545,0,0,1,1.769.869,3.464,3.464,0,0,1,1.056,1.289,4.437,4.437,0,0,1,.344,1.863,3.61,3.61,0,0,1-.437,1.793,4.084,4.084,0,0,1-1.19,1.33,5.316,5.316,0,0,1-1.8.819,9.249,9.249,0,0,1-2.311.272,7.735,7.735,0,0,1-3.466-.734A6.339,6.339,0,0,1,484.488,700.236Z" transform="translate(0 -3.254)"/><path d="M591.181,695.807l1.791-.641a5.756,5.756,0,0,0,5.885,4.368,6.3,6.3,0,0,0,3.744-1,3.206,3.206,0,0,0,1.39-2.758,4.24,4.24,0,0,0-.225-1.434,2.825,2.825,0,0,0-.843-1.16,7.2,7.2,0,0,0-1.67-1.023,23.855,23.855,0,0,0-2.71-1.025q-1.671-.531-2.93-1.044a8.059,8.059,0,0,1-2.1-1.2,4.493,4.493,0,0,1-1.252-1.584,5.14,5.14,0,0,1-.415-2.177,4.676,4.676,0,0,1,.476-2.093,5.26,5.26,0,0,1,1.322-1.689,6.387,6.387,0,0,1,2.024-1.14,7.706,7.706,0,0,1,2.6-.418,9.083,9.083,0,0,1,2.615.35,6.689,6.689,0,0,1,2.032.983,6.416,6.416,0,0,1,1.492,1.517,7.64,7.64,0,0,1,.979,1.93l-1.682.778a5.7,5.7,0,0,0-2.143-2.873,6.758,6.758,0,0,0-5.189-.6,4.566,4.566,0,0,0-1.4.709A3.012,3.012,0,0,0,593.778,685a3.53,3.53,0,0,0,.281,1.474,2.946,2.946,0,0,0,.959,1.119,7.846,7.846,0,0,0,1.765.942q1.089.438,2.745.956a22.634,22.634,0,0,1,2.833,1.064,8.1,8.1,0,0,1,2,1.277,4.742,4.742,0,0,1,1.2,1.638,5.4,5.4,0,0,1,.4,2.177,4.979,4.979,0,0,1-.548,2.336,5.261,5.261,0,0,1-1.5,1.775,7.218,7.218,0,0,1-2.285,1.133,9.7,9.7,0,0,1-2.868.41,7.978,7.978,0,0,1-4.9-1.467A7.343,7.343,0,0,1,591.181,695.807Z" transform="translate(0 -3.254)"/><path d="M608.845,693.5a9.156,9.156,0,0,1,.574-3.4,6.991,6.991,0,0,1,1.5-2.379,6.193,6.193,0,0,1,2.071-1.4,6.092,6.092,0,0,1,2.317-.465,5.812,5.812,0,0,1,2.4.492,5.208,5.208,0,0,1,1.9,1.456,7.17,7.17,0,0,1,1.265,2.406,10.84,10.84,0,0,1,.465,3.316v.369H610.772a7.24,7.24,0,0,0,.376,2.432,5.555,5.555,0,0,0,1,1.786,4.25,4.25,0,0,0,3.268,1.5,4.8,4.8,0,0,0,2.7-.694,6.738,6.738,0,0,0,1.894-2.012l1.2.961a7.767,7.767,0,0,1-2.4,2.447,6.444,6.444,0,0,1-3.52.9,6.313,6.313,0,0,1-2.461-.492,5.659,5.659,0,0,1-2.055-1.476,7.474,7.474,0,0,1-1.408-2.407A9.545,9.545,0,0,1,608.845,693.5Zm1.955-1.148h8.654a9.356,9.356,0,0,0-.376-1.932,4.94,4.94,0,0,0-.793-1.567,3.5,3.5,0,0,0-1.271-1.031,3.981,3.981,0,0,0-1.744-.365,4.114,4.114,0,0,0-1.544.3,4,4,0,0,0-1.347.9,5.117,5.117,0,0,0-1.026,1.519A7.081,7.081,0,0,0,610.8,692.356Z" transform="translate(0 -3.254)"/><path d="M624.13,693.532a9.509,9.509,0,0,1,.556-3.425,7.045,7.045,0,0,1,1.477-2.393,5.736,5.736,0,0,1,2.116-1.4,6.827,6.827,0,0,1,2.427-.451,6.25,6.25,0,0,1,2.085.321,5.046,5.046,0,0,1,1.579.882,6.194,6.194,0,0,1,1.162,1.292,8.387,8.387,0,0,1,.82,1.538l-1.64.725a6.014,6.014,0,0,0-1.566-2.3,3.712,3.712,0,0,0-2.5-.8,4.7,4.7,0,0,0-1.647.308,3.8,3.8,0,0,0-1.484,1.025,5.373,5.373,0,0,0-1.059,1.859,8.454,8.454,0,0,0-.4,2.8,8.721,8.721,0,0,0,.348,2.584,5.842,5.842,0,0,0,.95,1.887,4.153,4.153,0,0,0,1.429,1.176,4,4,0,0,0,1.8.41,3.927,3.927,0,0,0,2.5-.745,6.648,6.648,0,0,0,1.743-2.4l1.559.669a11.114,11.114,0,0,1-.985,1.7,5.75,5.75,0,0,1-1.264,1.305,5.631,5.631,0,0,1-1.613.827,6.423,6.423,0,0,1-2.017.294,6,6,0,0,1-2.42-.506,5.832,5.832,0,0,1-2.041-1.49,7.3,7.3,0,0,1-1.395-2.406A9.621,9.621,0,0,1,624.13,693.532Z" transform="translate(0 -3.254)"/><path d="M639.7,696.813V686.149h1.928v10.322a3.354,3.354,0,0,0,.7,2.331,2.915,2.915,0,0,0,2.242.759,5.208,5.208,0,0,0,2.646-.7,13.709,13.709,0,0,0,2.481-1.88V686.149h1.928V700.9H649.7v-2.324a11.224,11.224,0,0,1-2.468,1.852,6.29,6.29,0,0,1-3.137.786,4.313,4.313,0,0,1-3.3-1.162A4.555,4.555,0,0,1,639.7,696.813Z" transform="translate(0 -3.254)"/><path d="M656.108,700.9V686.149h1.928v2.936h.055a7.508,7.508,0,0,1,2.276-2.307,6.415,6.415,0,0,1,3.575-.916h.342l-.191,1.818h-.287a1.327,1.327,0,0,1-.192-.013.893.893,0,0,0-.109-.014,5.506,5.506,0,0,0-3.213.955,7,7,0,0,0-2.256,2.715V700.9Z" transform="translate(0 -3.254)"/><path d="M667.278,682.731v-2.078h2.051v2.078Zm.055,18.17V686.149h1.928V700.9Z" transform="translate(0 -3.254)"/><path d="M672.323,687.8v-1.654h2.584v-5.291h1.928v5.291h3.828V687.8h-3.828v9.267a2.909,2.909,0,0,0,.478,1.8,2.226,2.226,0,0,0,1.846.623h.827a2.5,2.5,0,0,0,.718-.1v1.531q-.342.054-.875.11a10.308,10.308,0,0,1-1.039.054,4.251,4.251,0,0,1-3-.854,3.745,3.745,0,0,1-.882-2.782V687.8Z" transform="translate(0 -3.254)"/><path d="M681.757,706.274l.437-1.6a5.437,5.437,0,0,0,.821.164,9.279,9.279,0,0,0,1.23.069,2.881,2.881,0,0,0,1.873-.548,4.268,4.268,0,0,0,1.149-1.725l.615-1.629-5.715-14.856h2.078l4.594,12.474h.054l4.567-12.474h2.01l-6.358,16.461a11.011,11.011,0,0,1-.779,1.723,4.631,4.631,0,0,1-1,1.23,3.962,3.962,0,0,1-1.326.745,5.731,5.731,0,0,1-1.819.253,10.442,10.442,0,0,1-1.422-.081A7.8,7.8,0,0,1,681.757,706.274Z" transform="translate(0 -3.254)"/><path d="M852.007,700.9V680.174h5.236q5.087,0,7.691,2.582t2.6,7.72q0,5.171-2.632,7.8t-7.663,2.627Zm1.982-1.818h3.555a8.109,8.109,0,0,0,5.927-2.046q2.083-2.046,2.085-6.561,0-4.392-2.1-6.437a8.193,8.193,0,0,0-5.968-2.046h-3.5Z" transform="translate(0 -3.254)"/><path d="M870.259,697.446a4.2,4.2,0,0,1,.506-2.028,4.984,4.984,0,0,1,1.681-1.719,12.485,12.485,0,0,1,3.083-1.4,30.513,30.513,0,0,1,4.724-1.037V690.5a3.083,3.083,0,0,0-.765-2.292,3.044,3.044,0,0,0-2.224-.751,6.571,6.571,0,0,0-3.046.662,12.466,12.466,0,0,0-2.458,1.679l-1.047-1.212a11.826,11.826,0,0,1,2.94-1.974,8.807,8.807,0,0,1,3.788-.754,4.658,4.658,0,0,1,3.617,1.243,4.963,4.963,0,0,1,1.123,3.455v6.7a21.155,21.155,0,0,0,.095,2.213,5.755,5.755,0,0,0,.315,1.433H880.6q-.138-.481-.241-.97a5.589,5.589,0,0,1-.1-1.147,9.226,9.226,0,0,1-2.709,1.772,8.034,8.034,0,0,1-3.106.591,4.464,4.464,0,0,1-3.083-.98A3.462,3.462,0,0,1,870.259,697.446Zm1.927-.245a2.149,2.149,0,0,0,.71,1.759,2.991,2.991,0,0,0,1.965.587,6.884,6.884,0,0,0,2.907-.614,9.1,9.1,0,0,0,2.485-1.705v-4.585a30,30,0,0,0-3.924.88,10.939,10.939,0,0,0-2.471,1.058,3.687,3.687,0,0,0-1.3,1.228A2.757,2.757,0,0,0,872.186,697.2Z" transform="translate(0 -3.254)"/><path d="M884.9,687.8v-1.654h2.584v-5.291h1.928v5.291h3.828V687.8h-3.828v9.267a2.9,2.9,0,0,0,.479,1.8,2.223,2.223,0,0,0,1.845.623h.827a2.5,2.5,0,0,0,.718-.1v1.531q-.341.054-.875.11a10.308,10.308,0,0,1-1.039.054,4.251,4.251,0,0,1-3-.854,3.745,3.745,0,0,1-.882-2.782V687.8Z" transform="translate(0 -3.254)"/><path d="M895.688,697.446a4.2,4.2,0,0,1,.506-2.028,5,5,0,0,1,1.682-1.719,12.468,12.468,0,0,1,3.083-1.4,30.486,30.486,0,0,1,4.724-1.037V690.5a3.083,3.083,0,0,0-.765-2.292,3.045,3.045,0,0,0-2.225-.751,6.574,6.574,0,0,0-3.046.662,12.525,12.525,0,0,0-2.458,1.679l-1.046-1.212a11.826,11.826,0,0,1,2.94-1.974,8.8,8.8,0,0,1,3.788-.754,4.656,4.656,0,0,1,3.616,1.243,4.963,4.963,0,0,1,1.123,3.455v6.7a21.117,21.117,0,0,0,.1,2.213,5.759,5.759,0,0,0,.314,1.433h-1.994q-.138-.481-.24-.97a5.589,5.589,0,0,1-.1-1.147,9.226,9.226,0,0,1-2.709,1.772,8.041,8.041,0,0,1-3.106.591,4.464,4.464,0,0,1-3.083-.98A3.462,3.462,0,0,1,895.688,697.446Zm1.928-.245a2.146,2.146,0,0,0,.71,1.759,2.991,2.991,0,0,0,1.965.587,6.884,6.884,0,0,0,2.907-.614,9.1,9.1,0,0,0,2.485-1.705v-4.585a30,30,0,0,0-3.924.88,10.919,10.919,0,0,0-2.471,1.058,3.687,3.687,0,0,0-1.3,1.228A2.757,2.757,0,0,0,897.616,697.2Z" transform="translate(0 -3.254)"/><path d="M917.194,698.562l1.231-1.122a6.585,6.585,0,0,0,1.948,1.56,5.648,5.648,0,0,0,2.645.575,5.1,5.1,0,0,0,2.872-.665,2.19,2.19,0,0,0,.97-1.926,2.029,2.029,0,0,0-.957-1.823,10.483,10.483,0,0,0-3.1-1.125l-2.213-.689a5.214,5.214,0,0,1-1.629-.8,3.18,3.18,0,0,1-.964-1.161,3.8,3.8,0,0,1-.321-1.652,3.4,3.4,0,0,1,.335-1.484,3.626,3.626,0,0,1,.977-1.239,4.828,4.828,0,0,1,1.566-.842,6.722,6.722,0,0,1,2.126-.307,7.844,7.844,0,0,1,3.2.574,7.517,7.517,0,0,1,2.269,1.56l-1.093,1.286a6.531,6.531,0,0,0-1.9-1.327,5.646,5.646,0,0,0-2.406-.494,5.182,5.182,0,0,0-1.477.182,2.861,2.861,0,0,0-.977.485,2,2,0,0,0-.561.687,1.828,1.828,0,0,0-.184.8,1.786,1.786,0,0,0,.832,1.6,8.983,8.983,0,0,0,2.77.991l2.416.736a5.545,5.545,0,0,1,1.769.869,3.464,3.464,0,0,1,1.056,1.289,4.437,4.437,0,0,1,.344,1.863,3.61,3.61,0,0,1-.437,1.793,4.084,4.084,0,0,1-1.19,1.33,5.316,5.316,0,0,1-1.8.819,9.244,9.244,0,0,1-2.311.272,7.735,7.735,0,0,1-3.466-.734A6.339,6.339,0,0,1,917.194,698.562Z" transform="translate(0 -3.254)"/><path d="M930.552,687.8v-1.654h2.584v-5.291h1.927v5.291h3.829V687.8h-3.829v9.267a2.909,2.909,0,0,0,.479,1.8,2.224,2.224,0,0,0,1.846.623h.827a2.5,2.5,0,0,0,.718-.1v1.531q-.342.054-.875.11a10.343,10.343,0,0,1-1.04.054,4.246,4.246,0,0,1-3-.854,3.745,3.745,0,0,1-.882-2.782V687.8Z" transform="translate(0 -3.254)"/><path d="M941.257,693.532a9.338,9.338,0,0,1,.532-3.275,7.163,7.163,0,0,1,1.441-2.406,6.029,6.029,0,0,1,2.131-1.483,6.707,6.707,0,0,1,2.588-.506,6.619,6.619,0,0,1,2.56.506,6.062,6.062,0,0,1,2.128,1.483,7.151,7.151,0,0,1,1.443,2.406,10.328,10.328,0,0,1,0,6.556,7.241,7.241,0,0,1-1.443,2.406,6,6,0,0,1-2.128,1.49,6.729,6.729,0,0,1-5.12,0,6.085,6.085,0,0,1-2.145-1.49,7.118,7.118,0,0,1-1.455-2.406A9.326,9.326,0,0,1,941.257,693.532Zm1.927-.028a8.927,8.927,0,0,0,.294,2.325,5.8,5.8,0,0,0,.9,1.921,4.522,4.522,0,0,0,1.5,1.319,4.621,4.621,0,0,0,4.066.041,4.456,4.456,0,0,0,1.486-1.251,5.7,5.7,0,0,0,.938-1.9,8.745,8.745,0,0,0,.321-2.454,8.381,8.381,0,0,0-.307-2.29,6,6,0,0,0-.9-1.9,4.49,4.49,0,0,0-1.471-1.306,4.167,4.167,0,0,0-2.061-.492,4.356,4.356,0,0,0-2.006.451,4.431,4.431,0,0,0-1.5,1.244,5.627,5.627,0,0,0-.938,1.9A8.559,8.559,0,0,0,943.184,693.5Z" transform="translate(0 -3.254)"/><path d="M958.265,700.9V686.149h1.927v2.936h.055a7.508,7.508,0,0,1,2.276-2.307,6.416,6.416,0,0,1,3.576-.916h.341l-.191,1.818h-.287a1.338,1.338,0,0,1-.192-.013.848.848,0,0,0-.109-.014,5.506,5.506,0,0,0-3.213.955,7,7,0,0,0-2.256,2.715V700.9Z" transform="translate(0 -3.254)"/><path d="M967.9,697.446a4.2,4.2,0,0,1,.506-2.028,5,5,0,0,1,1.682-1.719,12.468,12.468,0,0,1,3.083-1.4,30.471,30.471,0,0,1,4.723-1.037V690.5a3.083,3.083,0,0,0-.764-2.292,3.045,3.045,0,0,0-2.225-.751,6.574,6.574,0,0,0-3.046.662A12.5,12.5,0,0,0,969.4,689.8l-1.047-1.212a11.831,11.831,0,0,1,2.941-1.974,8.8,8.8,0,0,1,3.788-.754,4.656,4.656,0,0,1,3.616,1.243,4.963,4.963,0,0,1,1.123,3.455v6.7a20.845,20.845,0,0,0,.1,2.213,5.759,5.759,0,0,0,.314,1.433h-1.994q-.138-.481-.24-.97a5.583,5.583,0,0,1-.1-1.147,9.2,9.2,0,0,1-2.709,1.772,8.033,8.033,0,0,1-3.105.591,4.463,4.463,0,0,1-3.083-.98A3.459,3.459,0,0,1,967.9,697.446Zm1.928-.245a2.146,2.146,0,0,0,.71,1.759,2.991,2.991,0,0,0,1.965.587,6.887,6.887,0,0,0,2.907-.614,9.08,9.08,0,0,0,2.484-1.705v-4.585a29.985,29.985,0,0,0-3.923.88,10.9,10.9,0,0,0-2.471,1.058,3.687,3.687,0,0,0-1.3,1.228A2.757,2.757,0,0,0,969.831,697.2Z" transform="translate(0 -3.254)"/><path d="M982.464,702.835a2.984,2.984,0,0,1,.724-2,4.841,4.841,0,0,1,2.024-1.342,1.9,1.9,0,0,1-1.285-1.881,1.847,1.847,0,0,1,.48-1.229,4.183,4.183,0,0,1,1.283-.969,4.772,4.772,0,0,1-1.654-1.77,5.454,5.454,0,0,1-.143-4.621,5.028,5.028,0,0,1,1.216-1.675,5.657,5.657,0,0,1,1.839-1.094,7.091,7.091,0,0,1,4.673,0,5.5,5.5,0,0,1,1.844,1.121,6.973,6.973,0,0,1,1.568-.854,7.2,7.2,0,0,1,1.827-.485v1.927a8.82,8.82,0,0,0-1.342.108,5.653,5.653,0,0,0-1.344.377,4.6,4.6,0,0,1,.854,2.787,5.012,5.012,0,0,1-.448,2.149,4.922,4.922,0,0,1-1.215,1.636,5.279,5.279,0,0,1-1.819,1.034,7,7,0,0,1-2.274.359,6.639,6.639,0,0,1-2.379-.411,2.712,2.712,0,0,0-.854.526.973.973,0,0,0-.321.729.784.784,0,0,0,.459.728,5.416,5.416,0,0,0,1.719.4l3.222.246a8.13,8.13,0,0,1,3.869,1.115,2.977,2.977,0,0,1,1.313,2.625,3.261,3.261,0,0,1-.5,1.792,4.036,4.036,0,0,1-1.4,1.311,7.506,7.506,0,0,1-2.144.8,12.673,12.673,0,0,1-2.765.281,10.845,10.845,0,0,1-5.325-1A3.05,3.05,0,0,1,982.464,702.835Zm1.873-.24a1.954,1.954,0,0,0,1.278,1.8,9.833,9.833,0,0,0,4.068.625,7.658,7.658,0,0,0,3.541-.679,2.023,2.023,0,0,0,1.285-1.792,1.75,1.75,0,0,0-.917-1.6,7.6,7.6,0,0,0-3.092-.706L987.579,700l-.781-.083a3.847,3.847,0,0,0-1.86,1.115A2.391,2.391,0,0,0,984.337,702.6Zm.984-11.387a3.553,3.553,0,0,0,1.08,2.72,4.657,4.657,0,0,0,5.777.016,3.5,3.5,0,0,0,1.059-2.679,3.82,3.82,0,0,0-1.032-2.824,4.631,4.631,0,0,0-5.831,0A3.7,3.7,0,0,0,985.321,691.208Z" transform="translate(0 -3.254)"/><path d="M998.515,693.5a9.156,9.156,0,0,1,.574-3.4,6.991,6.991,0,0,1,1.5-2.379,6.193,6.193,0,0,1,2.071-1.4,6.092,6.092,0,0,1,2.317-.465,5.812,5.812,0,0,1,2.4.492,5.208,5.208,0,0,1,1.9,1.456,7.17,7.17,0,0,1,1.265,2.406,10.84,10.84,0,0,1,.465,3.316v.369h-10.569a7.24,7.24,0,0,0,.376,2.432,5.555,5.555,0,0,0,1,1.786,4.25,4.25,0,0,0,3.268,1.5,4.8,4.8,0,0,0,2.7-.694,6.723,6.723,0,0,0,1.893-2.012l1.2.961a7.767,7.767,0,0,1-2.4,2.447,6.444,6.444,0,0,1-3.52.9,6.313,6.313,0,0,1-2.461-.492,5.659,5.659,0,0,1-2.055-1.476,7.474,7.474,0,0,1-1.408-2.407A9.545,9.545,0,0,1,998.515,693.5Zm1.955-1.148h8.654a9.489,9.489,0,0,0-.376-1.932,4.96,4.96,0,0,0-.793-1.567,3.5,3.5,0,0,0-1.271-1.031,3.981,3.981,0,0,0-1.744-.365,4.122,4.122,0,0,0-1.545.3,4.007,4.007,0,0,0-1.346.9,5.1,5.1,0,0,0-1.026,1.519A7.053,7.053,0,0,0,1000.47,692.356Z" transform="translate(0 -3.254)"/><path d="M1076.576,700.9V680.174h7.171a8.411,8.411,0,0,1,5.262,1.376,4.616,4.616,0,0,1,1.745,3.841,5.308,5.308,0,0,1-.306,1.877,4.231,4.231,0,0,1-.849,1.4,4.714,4.714,0,0,1-1.249.962,5.976,5.976,0,0,1-1.5.553v.055a7.03,7.03,0,0,1,1.789.554,4.967,4.967,0,0,1,1.461,1.025,4.547,4.547,0,0,1,.973,1.483,5.162,5.162,0,0,1,.347,1.969,5.9,5.9,0,0,1-.43,2.27,4.635,4.635,0,0,1-1.309,1.784,6.257,6.257,0,0,1-2.209,1.162,10.432,10.432,0,0,1-3.115.417Zm1.928-11.512h5.079a7,7,0,0,0,3.867-.907,3.679,3.679,0,0,0,.137-5.623,7.025,7.025,0,0,0-3.949-.866H1078.5Zm0,9.748h5.831a6.112,6.112,0,0,0,3.929-1.025,3.594,3.594,0,0,0,1.232-2.926,3.385,3.385,0,0,0-1.547-3.076,7.828,7.828,0,0,0-4.229-.985H1078.5Z" transform="translate(0 -3.254)"/><path d="M1095.2,696.813V686.149h1.928v10.322a3.354,3.354,0,0,0,.7,2.331,2.915,2.915,0,0,0,2.242.759,5.208,5.208,0,0,0,2.646-.7,13.709,13.709,0,0,0,2.481-1.88V686.149h1.928V700.9h-1.928v-2.324a11.242,11.242,0,0,1-2.467,1.852,6.3,6.3,0,0,1-3.138.786,4.313,4.313,0,0,1-3.3-1.162A4.555,4.555,0,0,1,1095.2,696.813Z" transform="translate(0 -3.254)"/><path d="M1110.564,698.562l1.231-1.122a6.585,6.585,0,0,0,1.948,1.56,5.649,5.649,0,0,0,2.646.575,5.1,5.1,0,0,0,2.871-.665,2.19,2.19,0,0,0,.97-1.926,2.029,2.029,0,0,0-.957-1.823,10.483,10.483,0,0,0-3.1-1.125l-2.213-.689a5.214,5.214,0,0,1-1.629-.8,3.18,3.18,0,0,1-.964-1.161,3.8,3.8,0,0,1-.321-1.652,3.4,3.4,0,0,1,.335-1.484,3.626,3.626,0,0,1,.977-1.239,4.839,4.839,0,0,1,1.566-.842,6.722,6.722,0,0,1,2.126-.307,7.84,7.84,0,0,1,3.2.574,7.534,7.534,0,0,1,2.27,1.56l-1.094,1.286a6.531,6.531,0,0,0-1.9-1.327,5.646,5.646,0,0,0-2.406-.494,5.169,5.169,0,0,0-1.476.182,2.858,2.858,0,0,0-.978.485,2,2,0,0,0-.56.687,1.816,1.816,0,0,0-.185.8,1.786,1.786,0,0,0,.832,1.6,8.993,8.993,0,0,0,2.77.991l2.416.736a5.535,5.535,0,0,1,1.769.869,3.464,3.464,0,0,1,1.056,1.289,4.437,4.437,0,0,1,.344,1.863,3.61,3.61,0,0,1-.437,1.793,4.084,4.084,0,0,1-1.19,1.33,5.307,5.307,0,0,1-1.8.819,9.244,9.244,0,0,1-2.311.272,7.735,7.735,0,0,1-3.466-.734A6.339,6.339,0,0,1,1110.564,698.562Z" transform="translate(0 -3.254)"/><path d="M1125.877,682.731v-2.078h2.051v2.078Zm.055,18.17V686.149h1.927V700.9Z" transform="translate(0 -3.254)"/><path d="M1132.494,700.9V686.149h1.928v2.324a10.9,10.9,0,0,1,2.468-1.839,6.455,6.455,0,0,1,3.165-.772,4.354,4.354,0,0,1,3.288,1.148,4.478,4.478,0,0,1,1.1,3.227V700.9h-1.927V690.592a3.292,3.292,0,0,0-.711-2.317,2.924,2.924,0,0,0-2.229-.759,5.409,5.409,0,0,0-2.659.684,12.239,12.239,0,0,0-2.495,1.886V700.9Z" transform="translate(0 -3.254)"/><path d="M1147.916,693.5a9.156,9.156,0,0,1,.574-3.4,6.991,6.991,0,0,1,1.5-2.379,6.2,6.2,0,0,1,2.071-1.4,6.1,6.1,0,0,1,2.318-.465,5.807,5.807,0,0,1,2.4.492,5.211,5.211,0,0,1,1.9,1.456,7.151,7.151,0,0,1,1.264,2.406,10.809,10.809,0,0,1,.465,3.316v.369h-10.568a7.24,7.24,0,0,0,.376,2.432,5.555,5.555,0,0,0,1,1.786,4.245,4.245,0,0,0,3.267,1.5,4.8,4.8,0,0,0,2.7-.694,6.725,6.725,0,0,0,1.894-2.012l1.2.961a7.764,7.764,0,0,1-2.4,2.447,6.45,6.45,0,0,1-3.521.9,6.316,6.316,0,0,1-2.461-.492,5.659,5.659,0,0,1-2.055-1.476,7.511,7.511,0,0,1-1.408-2.407A9.568,9.568,0,0,1,1147.916,693.5Zm1.955-1.148h8.654a9.356,9.356,0,0,0-.376-1.932,4.94,4.94,0,0,0-.793-1.567,3.482,3.482,0,0,0-1.271-1.031,3.98,3.98,0,0,0-1.743-.365,4.119,4.119,0,0,0-1.545.3,4.011,4.011,0,0,0-1.347.9,5.1,5.1,0,0,0-1.025,1.519A7.052,7.052,0,0,0,1149.871,692.356Z" transform="translate(0 -3.254)"/><path d="M1162.736,698.562l1.231-1.122a6.585,6.585,0,0,0,1.948,1.56,5.648,5.648,0,0,0,2.645.575,5.1,5.1,0,0,0,2.872-.665,2.19,2.19,0,0,0,.97-1.926,2.029,2.029,0,0,0-.957-1.823,10.483,10.483,0,0,0-3.1-1.125l-2.213-.689a5.214,5.214,0,0,1-1.629-.8,3.18,3.18,0,0,1-.964-1.161,3.8,3.8,0,0,1-.321-1.652,3.4,3.4,0,0,1,.335-1.484,3.626,3.626,0,0,1,.977-1.239,4.828,4.828,0,0,1,1.566-.842,6.722,6.722,0,0,1,2.126-.307,7.844,7.844,0,0,1,3.2.574,7.517,7.517,0,0,1,2.269,1.56l-1.093,1.286a6.531,6.531,0,0,0-1.9-1.327,5.646,5.646,0,0,0-2.406-.494,5.182,5.182,0,0,0-1.477.182,2.861,2.861,0,0,0-.977.485,2,2,0,0,0-.561.687,1.828,1.828,0,0,0-.184.8,1.786,1.786,0,0,0,.832,1.6,8.983,8.983,0,0,0,2.77.991l2.416.736a5.545,5.545,0,0,1,1.769.869,3.464,3.464,0,0,1,1.056,1.289,4.437,4.437,0,0,1,.344,1.863,3.61,3.61,0,0,1-.437,1.793,4.084,4.084,0,0,1-1.19,1.33,5.316,5.316,0,0,1-1.8.819,9.244,9.244,0,0,1-2.311.272,7.735,7.735,0,0,1-3.466-.734A6.339,6.339,0,0,1,1162.736,698.562Z" transform="translate(0 -3.254)"/><path d="M1176.627,698.562l1.23-1.122a6.589,6.589,0,0,0,1.949,1.56,5.648,5.648,0,0,0,2.645.575,5.093,5.093,0,0,0,2.871-.665,2.189,2.189,0,0,0,.971-1.926,2.029,2.029,0,0,0-.957-1.823,10.492,10.492,0,0,0-3.1-1.125l-2.213-.689a5.2,5.2,0,0,1-1.628-.8,3.18,3.18,0,0,1-.964-1.161,3.8,3.8,0,0,1-.322-1.652,3.412,3.412,0,0,1,.335-1.484,3.629,3.629,0,0,1,.978-1.239,4.833,4.833,0,0,1,1.565-.842,6.73,6.73,0,0,1,2.126-.307,7.845,7.845,0,0,1,3.2.574,7.517,7.517,0,0,1,2.269,1.56l-1.094,1.286a6.514,6.514,0,0,0-1.9-1.327,5.649,5.649,0,0,0-2.406-.494,5.177,5.177,0,0,0-1.477.182,2.861,2.861,0,0,0-.977.485,2,2,0,0,0-.561.687,1.83,1.83,0,0,0-.185.8,1.788,1.788,0,0,0,.832,1.6,8.991,8.991,0,0,0,2.771.991l2.416.736a5.545,5.545,0,0,1,1.769.869,3.461,3.461,0,0,1,1.055,1.289,4.421,4.421,0,0,1,.345,1.863,3.611,3.611,0,0,1-.438,1.793,4.081,4.081,0,0,1-1.189,1.33,5.321,5.321,0,0,1-1.805.819,9.235,9.235,0,0,1-2.31.272,7.729,7.729,0,0,1-3.466-.734A6.331,6.331,0,0,1,1176.627,698.562Z" transform="translate(0 -3.254)"/><path d="M1198.269,682.731v-2.078h2.051v2.078Zm.055,18.17V686.149h1.928V700.9Z" transform="translate(0 -3.254)"/><path d="M1204.887,700.9V686.149h1.927v2.324a10.925,10.925,0,0,1,2.468-1.839,6.458,6.458,0,0,1,3.165-.772,4.353,4.353,0,0,1,3.288,1.148,4.475,4.475,0,0,1,1.1,3.227V700.9h-1.928V690.592a3.287,3.287,0,0,0-.711-2.317,2.921,2.921,0,0,0-2.228-.759,5.413,5.413,0,0,0-2.66.684,12.239,12.239,0,0,0-2.495,1.886V700.9Z" transform="translate(0 -3.254)"/><path d="M1219.584,687.8v-1.654h2.584v-5.291h1.928v5.291h3.828V687.8H1224.1v9.267a2.909,2.909,0,0,0,.478,1.8,2.225,2.225,0,0,0,1.846.623h.827a2.5,2.5,0,0,0,.718-.1v1.531q-.342.054-.875.11a10.323,10.323,0,0,1-1.039.054,4.251,4.251,0,0,1-3-.854,3.745,3.745,0,0,1-.882-2.782V687.8Z" transform="translate(0 -3.254)"/><path d="M1230.289,693.5a9.156,9.156,0,0,1,.574-3.4,6.991,6.991,0,0,1,1.5-2.379,6.2,6.2,0,0,1,2.071-1.4,6.1,6.1,0,0,1,2.318-.465,5.807,5.807,0,0,1,2.4.492,5.211,5.211,0,0,1,1.9,1.456,7.151,7.151,0,0,1,1.264,2.406,10.809,10.809,0,0,1,.465,3.316v.369h-10.568a7.24,7.24,0,0,0,.376,2.432,5.555,5.555,0,0,0,1,1.786,4.245,4.245,0,0,0,3.267,1.5,4.8,4.8,0,0,0,2.7-.694,6.725,6.725,0,0,0,1.894-2.012l1.2.961a7.764,7.764,0,0,1-2.4,2.447,6.45,6.45,0,0,1-3.521.9,6.316,6.316,0,0,1-2.461-.492,5.659,5.659,0,0,1-2.055-1.476,7.511,7.511,0,0,1-1.408-2.407A9.568,9.568,0,0,1,1230.289,693.5Zm1.955-1.148h8.654a9.356,9.356,0,0,0-.376-1.932,4.94,4.94,0,0,0-.793-1.567,3.482,3.482,0,0,0-1.271-1.031,3.98,3.98,0,0,0-1.743-.365,4.119,4.119,0,0,0-1.545.3,4.011,4.011,0,0,0-1.347.9,5.1,5.1,0,0,0-1.025,1.519A7.052,7.052,0,0,0,1232.244,692.356Z" transform="translate(0 -3.254)"/><path d="M1246.586,700.9V680.174h1.928V700.9Z" transform="translate(0 -3.254)"/><path d="M1253.312,700.9V680.174h1.928V700.9Z" transform="translate(0 -3.254)"/><path d="M1259.984,682.731v-2.078h2.051v2.078Zm.055,18.17V686.149h1.928V700.9Z" transform="translate(0 -3.254)"/><path d="M1264.947,702.835a2.98,2.98,0,0,1,.725-2,4.83,4.83,0,0,1,2.023-1.342,1.9,1.9,0,0,1-1.285-1.881,1.843,1.843,0,0,1,.481-1.229,4.183,4.183,0,0,1,1.283-.969,4.775,4.775,0,0,1-1.655-1.77,5.463,5.463,0,0,1-.143-4.621,5.031,5.031,0,0,1,1.217-1.675,5.647,5.647,0,0,1,1.839-1.094,6.624,6.624,0,0,1,2.324-.4,6.692,6.692,0,0,1,2.348.4,5.489,5.489,0,0,1,1.844,1.121,6.96,6.96,0,0,1,1.569-.854,7.184,7.184,0,0,1,1.827-.485v1.927a8.833,8.833,0,0,0-1.343.108,5.666,5.666,0,0,0-1.344.377,4.605,4.605,0,0,1,.855,2.787,5.012,5.012,0,0,1-.449,2.149,4.919,4.919,0,0,1-1.214,1.636,5.284,5.284,0,0,1-1.82,1.034,7,7,0,0,1-2.273.359,6.639,6.639,0,0,1-2.379-.411,2.706,2.706,0,0,0-.855.526.977.977,0,0,0-.321.729.784.784,0,0,0,.459.728,5.425,5.425,0,0,0,1.72.4l3.221.246a8.131,8.131,0,0,1,3.87,1.115,2.976,2.976,0,0,1,1.312,2.625,3.261,3.261,0,0,1-.5,1.792,4.042,4.042,0,0,1-1.395,1.311,7.524,7.524,0,0,1-2.145.8,12.671,12.671,0,0,1-2.764.281,10.85,10.85,0,0,1-5.326-1A3.051,3.051,0,0,1,1264.947,702.835Zm1.873-.24a1.954,1.954,0,0,0,1.279,1.8,9.827,9.827,0,0,0,4.067.625,7.652,7.652,0,0,0,3.541-.679,2.023,2.023,0,0,0,1.285-1.792,1.75,1.75,0,0,0-.917-1.6,7.593,7.593,0,0,0-3.092-.706l-2.921-.238-.781-.083a3.839,3.839,0,0,0-1.859,1.115A2.387,2.387,0,0,0,1266.82,702.6Zm.985-11.387a3.549,3.549,0,0,0,1.08,2.72,4.656,4.656,0,0,0,5.776.016,3.5,3.5,0,0,0,1.06-2.679,3.817,3.817,0,0,0-1.033-2.824,4.631,4.631,0,0,0-5.831,0A3.7,3.7,0,0,0,1267.805,691.208Z" transform="translate(0 -3.254)"/><path d="M1281,693.5a9.156,9.156,0,0,1,.574-3.4,6.991,6.991,0,0,1,1.5-2.379,6.2,6.2,0,0,1,2.071-1.4,6.1,6.1,0,0,1,2.318-.465,5.807,5.807,0,0,1,2.4.492,5.211,5.211,0,0,1,1.9,1.456,7.151,7.151,0,0,1,1.264,2.406,10.809,10.809,0,0,1,.465,3.316v.369h-10.568a7.24,7.24,0,0,0,.376,2.432,5.555,5.555,0,0,0,1.005,1.786,4.245,4.245,0,0,0,3.267,1.5,4.8,4.8,0,0,0,2.7-.694,6.725,6.725,0,0,0,1.894-2.012l1.2.961a7.764,7.764,0,0,1-2.4,2.447,6.45,6.45,0,0,1-3.521.9,6.316,6.316,0,0,1-2.461-.492,5.659,5.659,0,0,1-2.055-1.476,7.511,7.511,0,0,1-1.408-2.407A9.568,9.568,0,0,1,1281,693.5Zm1.955-1.148h8.654a9.356,9.356,0,0,0-.376-1.932,4.94,4.94,0,0,0-.793-1.567,3.482,3.482,0,0,0-1.271-1.031,3.98,3.98,0,0,0-1.743-.365,4.119,4.119,0,0,0-1.545.3,4.011,4.011,0,0,0-1.347.9,5.1,5.1,0,0,0-1.025,1.519A7.052,7.052,0,0,0,1282.953,692.356Z" transform="translate(0 -3.254)"/><path d="M1297.131,700.9V686.149h1.928v2.324a10.9,10.9,0,0,1,2.467-1.839,6.46,6.46,0,0,1,3.165-.772,4.353,4.353,0,0,1,3.288,1.148,4.475,4.475,0,0,1,1.1,3.227V700.9h-1.928V690.592a3.287,3.287,0,0,0-.711-2.317,2.92,2.92,0,0,0-2.228-.759,5.409,5.409,0,0,0-2.659.684,12.185,12.185,0,0,0-2.5,1.886V700.9Z" transform="translate(0 -3.254)"/><path d="M1312.553,693.532a9.509,9.509,0,0,1,.556-3.425,7.029,7.029,0,0,1,1.477-2.393,5.736,5.736,0,0,1,2.116-1.4,6.827,6.827,0,0,1,2.427-.451,6.25,6.25,0,0,1,2.085.321,5.046,5.046,0,0,1,1.579.882,6.194,6.194,0,0,1,1.162,1.292,8.387,8.387,0,0,1,.82,1.538l-1.64.725a6.014,6.014,0,0,0-1.566-2.3,3.712,3.712,0,0,0-2.495-.8,4.7,4.7,0,0,0-1.647.308,3.8,3.8,0,0,0-1.484,1.025,5.373,5.373,0,0,0-1.059,1.859,8.452,8.452,0,0,0-.4,2.8,8.719,8.719,0,0,0,.349,2.584,5.822,5.822,0,0,0,.95,1.887,4.153,4.153,0,0,0,1.429,1.176,4,4,0,0,0,1.8.41,3.927,3.927,0,0,0,2.495-.745,6.648,6.648,0,0,0,1.743-2.4l1.559.669a11.114,11.114,0,0,1-.985,1.7,5.75,5.75,0,0,1-1.264,1.305,5.623,5.623,0,0,1-1.614.827,6.412,6.412,0,0,1-2.016.294,6,6,0,0,1-2.42-.506,5.823,5.823,0,0,1-2.041-1.49,7.3,7.3,0,0,1-1.395-2.406A9.621,9.621,0,0,1,1312.553,693.532Z" transform="translate(0 -3.254)"/><path d="M1327.168,693.5a9.156,9.156,0,0,1,.574-3.4,6.991,6.991,0,0,1,1.5-2.379,6.2,6.2,0,0,1,2.071-1.4,6.1,6.1,0,0,1,2.318-.465,5.807,5.807,0,0,1,2.4.492,5.2,5.2,0,0,1,1.9,1.456,7.134,7.134,0,0,1,1.265,2.406,10.809,10.809,0,0,1,.465,3.316v.369H1329.1a7.24,7.24,0,0,0,.376,2.432,5.572,5.572,0,0,0,1,1.786,4.25,4.25,0,0,0,3.268,1.5,4.8,4.8,0,0,0,2.7-.694,6.725,6.725,0,0,0,1.894-2.012l1.2.961a7.764,7.764,0,0,1-2.4,2.447,6.45,6.45,0,0,1-3.521.9,6.316,6.316,0,0,1-2.461-.492,5.659,5.659,0,0,1-2.055-1.476,7.492,7.492,0,0,1-1.408-2.407A9.568,9.568,0,0,1,1327.168,693.5Zm1.955-1.148h8.654a9.356,9.356,0,0,0-.376-1.932,4.94,4.94,0,0,0-.793-1.567,3.482,3.482,0,0,0-1.271-1.031,3.98,3.98,0,0,0-1.743-.365,4.119,4.119,0,0,0-1.545.3,4.011,4.011,0,0,0-1.347.9,5.1,5.1,0,0,0-1.025,1.519A7.052,7.052,0,0,0,1329.123,692.356Z" transform="translate(0 -3.254)"/><path d="M525.289,13.986a13.888,13.888,0,0,1,.725-4.7,9.456,9.456,0,0,1,2-3.368,8.045,8.045,0,0,1,3-2.005,10.228,10.228,0,0,1,3.677-.657,10.5,10.5,0,0,1,3.384.487,6.965,6.965,0,0,1,4.067,3.469,11.231,11.231,0,0,1,.944,2.6l-4.307,1.253a11.211,11.211,0,0,0-.581-1.627,4.675,4.675,0,0,0-.813-1.26,3.448,3.448,0,0,0-1.135-.811,3.882,3.882,0,0,0-1.586-.293,4.022,4.022,0,0,0-3.6,1.86,9.149,9.149,0,0,0-1.217,5.058,9.294,9.294,0,0,0,1.258,5.176,4.068,4.068,0,0,0,3.61,1.906,3.585,3.585,0,0,0,2.83-1.11,7.854,7.854,0,0,0,1.545-3.234l4.279.954a14.119,14.119,0,0,1-1.053,2.864,7.428,7.428,0,0,1-1.709,2.242,7.537,7.537,0,0,1-2.509,1.456,10.126,10.126,0,0,1-3.411.52,10.32,10.32,0,0,1-3.732-.662,8.087,8.087,0,0,1-2.987-1.987A9.173,9.173,0,0,1,526,18.759,14.44,14.44,0,0,1,525.289,13.986Z" transform="translate(0 -3.254)"/><path d="M546.426,24.363V3.637h4.511V24.363Z" transform="translate(0 -3.254)"/><path d="M553.685,16.871a8.745,8.745,0,0,1,.685-3.665,6.638,6.638,0,0,1,1.778-2.394,6.712,6.712,0,0,1,2.45-1.291,9.879,9.879,0,0,1,2.737-.388,9.775,9.775,0,0,1,2.7.388,6.613,6.613,0,0,1,2.445,1.291,6.728,6.728,0,0,1,1.777,2.394,8.711,8.711,0,0,1,.689,3.665,8.79,8.79,0,0,1-.689,3.691,6.827,6.827,0,0,1-1.777,2.4,6.66,6.66,0,0,1-2.445,1.312,9.537,9.537,0,0,1-2.7.4,9.7,9.7,0,0,1-2.724-.4,6.554,6.554,0,0,1-4.241-3.717A8.824,8.824,0,0,1,553.685,16.871Zm4.512.027a8.818,8.818,0,0,0,.171,1.766,4.45,4.45,0,0,0,.545,1.451,2.9,2.9,0,0,0,.962.975,2.739,2.739,0,0,0,1.46.361,2.543,2.543,0,0,0,2.34-1.254,6.334,6.334,0,0,0,.757-3.3,8.56,8.56,0,0,0-.171-1.738,4.479,4.479,0,0,0-.545-1.437,2.782,2.782,0,0,0-.962-.961,2.736,2.736,0,0,0-1.419-.348,2.589,2.589,0,0,0-2.381,1.24A6.16,6.16,0,0,0,558.2,16.9Z" transform="translate(0 -3.254)"/><path d="M571.4,20.33V9.434h4.512v9.572a2.472,2.472,0,0,0,.409,1.537,1.606,1.606,0,0,0,1.35.525,3.53,3.53,0,0,0,1.7-.429,8.839,8.839,0,0,0,1.548-1.073V9.434h4.512V24.363H580.92V22.029a11.524,11.524,0,0,1-.812.9,5.632,5.632,0,0,1-1.111.858,6.8,6.8,0,0,1-1.438.638,5.865,5.865,0,0,1-1.78.254,6.082,6.082,0,0,1-1.749-.24,3.446,3.446,0,0,1-2.3-2.132A5.462,5.462,0,0,1,571.4,20.33Z" transform="translate(0 -3.254)"/><path d="M588.043,17.008a12.413,12.413,0,0,1,.418-3.392,7.249,7.249,0,0,1,1.191-2.47,5.052,5.052,0,0,1,1.836-1.508,5.389,5.389,0,0,1,2.349-.505,5.867,5.867,0,0,1,2.619.543,5.243,5.243,0,0,1,1.909,1.629V3.637h4.512v17.09a20.781,20.781,0,0,0,.1,2.208,4.614,4.614,0,0,0,.355,1.428h-4.621a1.412,1.412,0,0,1-.144-.389,5.241,5.241,0,0,1-.1-.575q-.041-.32-.068-.656c-.019-.223-.028-.431-.028-.622a6.786,6.786,0,0,1-1.828,1.736,4.911,4.911,0,0,1-2.755.725,5.782,5.782,0,0,1-2.321-.459,4.8,4.8,0,0,1-1.822-1.383,6.543,6.543,0,0,1-1.178-2.356A12.1,12.1,0,0,1,588.043,17.008Zm4.512-.028a5.878,5.878,0,0,0,.7,3.059,2.388,2.388,0,0,0,2.2,1.166,3,3,0,0,0,1.609-.453,6.916,6.916,0,0,0,1.3-1.015V14.21a5.667,5.667,0,0,0-1.391-1.05,3.465,3.465,0,0,0-1.569-.336Q592.555,12.824,592.555,16.98Z" transform="translate(0 -3.254)"/><path d="M613.049,16.871a8.593,8.593,0,0,1,.713-3.72,6.688,6.688,0,0,1,1.824-2.38,6.841,6.841,0,0,1,2.438-1.264,9.437,9.437,0,0,1,2.558-.374,8.136,8.136,0,0,1,2.611.373,5.775,5.775,0,0,1,1.846,1,5.416,5.416,0,0,1,1.23,1.446,11.577,11.577,0,0,1,.821,1.718L623.3,14.922a4.073,4.073,0,0,0-1.121-1.97,2.563,2.563,0,0,0-1.655-.538,2.524,2.524,0,0,0-2.167,1.125,5.8,5.8,0,0,0-.8,3.359,9.058,9.058,0,0,0,.171,1.834,4.924,4.924,0,0,0,.52,1.438,2.563,2.563,0,0,0,.895.947,2.5,2.5,0,0,0,1.327.334,2.78,2.78,0,0,0,1.681-.572,4,4,0,0,0,1.258-2.072l3.732,1.281a10.829,10.829,0,0,1-.916,1.707,6.209,6.209,0,0,1-1.346,1.473,6.519,6.519,0,0,1-1.9,1.023,7.811,7.811,0,0,1-2.59.387,8.948,8.948,0,0,1-2.621-.4,6.381,6.381,0,0,1-2.356-1.312,6.734,6.734,0,0,1-1.707-2.4A9.141,9.141,0,0,1,613.049,16.871Z" transform="translate(0 -3.254)"/><path d="M628.43,16.871a8.746,8.746,0,0,1,.684-3.665,6.628,6.628,0,0,1,1.779-2.394,6.7,6.7,0,0,1,2.449-1.291,9.879,9.879,0,0,1,2.737-.388,9.77,9.77,0,0,1,2.7.388,6.617,6.617,0,0,1,2.446,1.291A6.738,6.738,0,0,1,643,13.206a8.711,8.711,0,0,1,.689,3.665A8.79,8.79,0,0,1,643,20.562a6.837,6.837,0,0,1-1.776,2.4,6.664,6.664,0,0,1-2.446,1.312,9.532,9.532,0,0,1-2.7.4,9.7,9.7,0,0,1-2.724-.4,6.56,6.56,0,0,1-4.241-3.717A8.825,8.825,0,0,1,628.43,16.871Zm4.511.027a8.818,8.818,0,0,0,.171,1.766,4.472,4.472,0,0,0,.545,1.451,2.9,2.9,0,0,0,.962.975,2.739,2.739,0,0,0,1.46.361,2.543,2.543,0,0,0,2.34-1.254,6.334,6.334,0,0,0,.757-3.3,8.56,8.56,0,0,0-.171-1.738,4.456,4.456,0,0,0-.545-1.437,2.774,2.774,0,0,0-.962-.961,2.736,2.736,0,0,0-1.419-.348,2.589,2.589,0,0,0-2.381,1.24A6.16,6.16,0,0,0,632.941,16.9Z" transform="translate(0 -3.254)"/><path d="M646.285,24.363V9.434H650.8v2.333a7.85,7.85,0,0,1,.806-.9,6.822,6.822,0,0,1,1.094-.849,6.426,6.426,0,0,1,1.361-.637,5.1,5.1,0,0,1,1.634-.251,4.762,4.762,0,0,1,2.839.706,3.289,3.289,0,0,1,1.262,1.928c.226-.272.5-.566.81-.883a5.968,5.968,0,0,1,1.1-.863,6.743,6.743,0,0,1,1.37-.637,5.637,5.637,0,0,1,3.578.084,3.615,3.615,0,0,1,1.374.95,3.824,3.824,0,0,1,.8,1.442,6.261,6.261,0,0,1,.253,1.839V24.363h-4.512V14.88a2.964,2.964,0,0,0-.32-1.535,1.414,1.414,0,0,0-1.3-.521,2.945,2.945,0,0,0-1.54.425,10.1,10.1,0,0,0-1.445,1.069V24.363h-4.512V14.88a2.963,2.963,0,0,0-.321-1.535,1.419,1.419,0,0,0-1.306-.521,2.98,2.98,0,0,0-1.558.425,10.732,10.732,0,0,0-1.463,1.069V24.363Z" transform="translate(0 -3.254)"/><path d="M672.385,29.969V9.434H676.9v2.251a7.858,7.858,0,0,1,1.832-1.772,4.683,4.683,0,0,1,2.762-.78,5.472,5.472,0,0,1,2.323.491,4.967,4.967,0,0,1,1.823,1.454,6.929,6.929,0,0,1,1.178,2.415,12.256,12.256,0,0,1,.418,3.378,12.191,12.191,0,0,1-.418,3.376,6.886,6.886,0,0,1-1.192,2.417,4.843,4.843,0,0,1-1.836,1.445,5.737,5.737,0,0,1-2.364.473,6.072,6.072,0,0,1-2.6-.513A5.818,5.818,0,0,1,676.9,22.6v7.369Zm4.511-10.15a5.843,5.843,0,0,0,1.409,1.043,3.488,3.488,0,0,0,1.586.343,2.341,2.341,0,0,0,2.126-1.125,6.01,6.01,0,0,0,.7-3.182,5.552,5.552,0,0,0-.691-2.976,2.4,2.4,0,0,0-2.194-1.1,3.106,3.106,0,0,0-1.627.453,6.8,6.8,0,0,0-1.313,1.015Z" transform="translate(0 -3.254)"/><path d="M689.721,20.33V9.434h4.511v9.572a2.466,2.466,0,0,0,.41,1.537,1.6,1.6,0,0,0,1.349.525,3.527,3.527,0,0,0,1.7-.429,8.8,8.8,0,0,0,1.548-1.073V9.434h4.512V24.363h-4.512V22.029a11.5,11.5,0,0,1-.811.9,5.669,5.669,0,0,1-1.112.858,6.773,6.773,0,0,1-1.438.638,5.858,5.858,0,0,1-1.779.254,6.082,6.082,0,0,1-1.749-.24,3.552,3.552,0,0,1-1.392-.772,3.512,3.512,0,0,1-.912-1.36A5.441,5.441,0,0,1,689.721,20.33Z" transform="translate(0 -3.254)"/><path d="M705.908,12.715V9.434h2.461V4.32h4.512V9.434h3.8v3.281h-3.8v6.457a2.456,2.456,0,0,0,.417,1.651,2.25,2.25,0,0,0,1.647.45c.265,0,.54-.013.827-.041a2.438,2.438,0,0,0,.663-.136v3.239c-.09.019-.251.041-.478.068s-.485.051-.773.07l-.895.054q-.465.028-.82.028a9.939,9.939,0,0,1-2.679-.294,3.376,3.376,0,0,1-1.548-.855,2.8,2.8,0,0,1-.7-1.367,9.1,9.1,0,0,1-.172-1.873V12.715Z" transform="translate(0 -3.254)"/><path d="M719.252,7.4V3.787h4.566V7.4Zm.027,16.967V9.434h4.512V24.363Z" transform="translate(0 -3.254)"/><path d="M727.373,24.363V9.434h4.512v2.333a7.757,7.757,0,0,1,.806-.9,6.336,6.336,0,0,1,1.121-.849,6.738,6.738,0,0,1,1.443-.637,5.959,5.959,0,0,1,1.785-.251,5.813,5.813,0,0,1,1.754.253,3.7,3.7,0,0,1,1.382.772,3.5,3.5,0,0,1,.9,1.34,5.361,5.361,0,0,1,.323,1.969v10.9h-4.511V14.88a2.474,2.474,0,0,0-.4-1.535,1.617,1.617,0,0,0-1.36-.521,3.555,3.555,0,0,0-1.689.425,8.569,8.569,0,0,0-1.551,1.069V24.363Z" transform="translate(0 -3.254)"/><path d="M742.809,26.605a2.485,2.485,0,0,1,.757-1.843,5.35,5.35,0,0,1,1.787-1.158,2.006,2.006,0,0,1-1.027-1.789,2.636,2.636,0,0,1,.646-1.712,6.236,6.236,0,0,1,1.547-1.345,4.9,4.9,0,0,1-1.839-1.85,5.042,5.042,0,0,1-.614-2.471,4.96,4.96,0,0,1,.443-2.083,4.744,4.744,0,0,1,1.295-1.681,6.327,6.327,0,0,1,2.1-1.126,10.149,10.149,0,0,1,5.792.016,5.873,5.873,0,0,1,2.088,1.2,6.372,6.372,0,0,1,1.832-1.067,6.6,6.6,0,0,1,2.01-.478v3.377c-.265,0-.615.018-1.053.055a7.886,7.886,0,0,0-1.476.291,3.7,3.7,0,0,1,.287,1.5,5.131,5.131,0,0,1-.438,2.128,4.84,4.84,0,0,1-1.28,1.7,6.074,6.074,0,0,1-2.073,1.13,9.071,9.071,0,0,1-2.833.406,10.468,10.468,0,0,1-1.22-.068c-.385-.046-.74-.105-1.069-.178a2.408,2.408,0,0,0-.35.357.611.611,0,0,0-.13.385.518.518,0,0,0,.425.536,6.3,6.3,0,0,0,1.233.174l2.235.147a12.261,12.261,0,0,1,5.527,1.136,3.366,3.366,0,0,1,1.682,3.116,3.27,3.27,0,0,1-.651,2.017,4.875,4.875,0,0,1-1.778,1.429,10,10,0,0,1-2.717.84,19.744,19.744,0,0,1-3.434.281,24.793,24.793,0,0,1-3.661-.226,8.33,8.33,0,0,1-2.373-.663,3.009,3.009,0,0,1-1.281-1.066A2.626,2.626,0,0,1,742.809,26.605Zm4.2-.82a1.523,1.523,0,0,0,.972,1.449,8.192,8.192,0,0,0,3.26.465,8.107,8.107,0,0,0,2.821-.41q1.082-.41,1.082-1.135a1.323,1.323,0,0,0-.13-.6,1.052,1.052,0,0,0-.546-.445,4.744,4.744,0,0,0-1.2-.294q-.785-.11-2.094-.177l-2.348-.11-.982-.082A1.608,1.608,0,0,0,747.006,25.785ZM748.264,14.6a2.87,2.87,0,0,0,.658,1.935,2.367,2.367,0,0,0,1.9.77,2.342,2.342,0,0,0,1.9-.77,2.913,2.913,0,0,0,.645-1.935,2.751,2.751,0,0,0-.645-1.873,2.837,2.837,0,0,0-3.824,0A2.75,2.75,0,0,0,748.264,14.6Z" transform="translate(0 -3.254)"/><line class="cls-1" x1="928.913" y1="333.706" x2="928.913" y2="409.639"/><path d="M922.145,412.555a6.768,6.768,0,1,0,6.768-6.768A6.768,6.768,0,0,0,922.145,412.555Z" transform="translate(0 -3.254)"/><line class="cls-1" x1="365.147" y1="333.706" x2="365.147" y2="409.639"/><path d="M358.379,412.555a6.768,6.768,0,1,0,6.768-6.768A6.768,6.768,0,0,0,358.379,412.555Z" transform="translate(0 -3.254)"/><polyline class="cls-1" points="87.375 410.71 87.375 333.705 1208.856 333.705 1208.856 409.638"/><path d="M93.015,413.682a5.64,5.64,0,1,1-5.64-5.64A5.64,5.64,0,0,1,93.015,413.682Z" transform="translate(0 -3.254)"/><path d="M1202.089,412.554a6.768,6.768,0,1,0,6.767-6.768A6.767,6.767,0,0,0,1202.089,412.554Z" transform="translate(0 -3.254)"/><line class="cls-1" x1="640.943" y1="186.139" x2="640.943" y2="409.639"/><path d="M634.175,412.555a6.768,6.768,0,1,0,6.768-6.768A6.768,6.768,0,0,0,634.175,412.555Z" transform="translate(0 -3.254)"/><path class="cls-2" d="M675.436,588.167a36,36,0,0,0-34.774-26.682v25.506c.042,0,.083-.006.125-.006a10.486,10.486,0,0,1,9.054,15.8l22,12.7a36.008,36.008,0,0,0,3.6-27.318Z" transform="translate(0 -3.254)"/><path class="cls-3" d="M651.287,597.485a10.44,10.44,0,0,1-1.446,5.3l22,12.7a35.986,35.986,0,0,0,4.823-18Z" transform="translate(0 -3.254)"/><path class="cls-4" d="M651.287,597.485h25.375a35.979,35.979,0,0,0-4.823-18l-22,12.7A10.441,10.441,0,0,1,651.287,597.485Z" transform="translate(0 -3.254)"/><path class="cls-5" d="M649.841,592.185l22-12.7a36,36,0,0,0-13.177-13.177l-12.721,22.034A10.549,10.549,0,0,1,649.841,592.185Z" transform="translate(0 -3.254)"/><path d="M640.788,633.485a36,36,0,0,1,0-72v3a33,33,0,0,0,0,66,32.58,32.58,0,0,0,28.452-16.494l2.6,1.5A35.552,35.552,0,0,1,640.788,633.485Zm32.874-102a33,33,0,1,0-66,0v27.75h3v-27.75a30,30,0,0,1,60-.007l-.125,27.75,3,.013Zm-15,0a18,18,0,1,0-36,0V550.61h3V531.485a15,15,0,1,1,30,0V550.61h3Zm33.126,66a51,51,0,1,0-51,51A51.058,51.058,0,0,0,691.788,597.485Zm-3,0a48,48,0,1,1-48-48A48.055,48.055,0,0,1,688.788,597.485Zm-36,0a12,12,0,1,0-12,12A12.014,12.014,0,0,0,652.788,597.485Zm-3,0a9,9,0,1,1-9-9A9.011,9.011,0,0,1,649.788,597.485Z" transform="translate(0 -3.254)"/><path d="M1220.392,606.485h27v-15h-27Zm3-12h21v9h-21Zm-3-30h27v-15h-27Zm3-12h21v9h-21Zm-3,33h27v-15h-27Zm3-12h21v9h-21Zm24-45h-63v15h63Zm-3,12h-57v-9h57Zm-75,39h-12v15h12Zm-3,12h-6v-9h6Zm3-33h-12v15h12Zm-3,12h-6v-9h6Zm90,75v-126h-69v-9h-12v39h-27v96h-6v3h36v-96h33v96h51v-3Zm-78-132h6v5.78h-6Zm-12,99h-6v-9h6Zm0,3v6h-6v-6Zm-6,9h6v21h-6Zm15,21h-6v-45h-12v45h-6v-93h24Zm3-96v-27h75v123h-6v-33h-27v33h-6v-96Zm66,71.98h-21v-5.98h21Zm-12,3v21.02h-9v-21.02Zm3,0h9v21.02h-9Z" transform="translate(0 -3.254)"/><rect class="cls-6" x="1149.891" y="592.985" width="90" height="21" transform="translate(1798.376 -594.66) rotate(90)"/><rect class="cls-3" x="1183.641" y="559.235" width="22.5" height="21" transform="translate(1764.626 -628.41) rotate(90)"/><rect class="cls-4" x="1183.641" y="581.735" width="22.5" height="21" transform="translate(1787.126 -605.91) rotate(90)"/><rect class="cls-5" x="1183.641" y="604.235" width="22.5" height="21" transform="translate(1809.626 -583.41) rotate(90)"/><path d="M1246.642,519.485v-40.7a6,6,0,1,0-3,0v40.7" transform="translate(0 -3.254)"/><path d="M1242.142,472.985a3,3,0,1,1,3,3A3,3,0,0,1,1242.142,472.985Z" transform="translate(0 -3.254)"/><path d="M1222.642,519.485v-67.7a6,6,0,1,0-3,0v67.7" transform="translate(0 -3.254)"/><path d="M1218.142,445.985a3,3,0,1,1,3,3A3,3,0,0,1,1218.142,445.985Z" transform="translate(0 -3.254)"/><path d="M1169.392,550.235V495.93a6,6,0,1,0-3,.195v54.11" transform="translate(0 -3.254)"/><path d="M1164.517,490.235a3,3,0,1,1,3,3A3,3,0,0,1,1164.517,490.235Z" transform="translate(0 -3.254)"/><path d="M1157.392,520.235h-27.2a6,6,0,1,0,0,3h27.2" transform="translate(0 -3.254)"/><path d="M1127.392,521.735a3,3,0,1,1-.879-2.121,3,3,0,0,1,.879,2.121Z" transform="translate(0 -3.254)"/><polyline points="1231.642 516.231 1231.642 465.231 1234.642 465.231 1234.642 516.231"/><polyline points="1207.642 516.231 1207.642 468.231 1210.642 468.231 1210.642 516.231"/><polyline points="1195.642 516.231 1195.642 441.231 1198.642 441.231 1198.642 516.231"/><polyline points="1154.392 546.981 1154.392 516.981 1157.392 516.981 1157.392 546.981"/><path d="M1197.892,444.485h-27.2a6,6,0,1,0,0,3h27.2" transform="translate(0 -3.254)"/><path d="M1167.892,445.985a3,3,0,1,1-.879-2.121,3,3,0,0,1,.879,2.121Z" transform="translate(0 -3.254)"/><path class="cls-7" d="M359.811,639.424a6.976,6.976,0,1,1,6.973-6.972A6.983,6.983,0,0,1,359.811,639.424Zm0-10.951a3.976,3.976,0,1,0,3.973,3.979A3.982,3.982,0,0,0,359.811,628.473Zm33.07,4.405v4.267c0,5.923-2.413,8.34-8.331,8.34H335.091c-5.933,0-8.354-2.417-8.354-8.34v-6.209h-3v6.209c0,7.63,3.715,11.34,11.354,11.34H384.55c7.624,0,11.331-3.71,11.331-11.34v-1.267Zm28.74-35.2h0l-7.649-13.251c-.1-.183-.221-.357-.338-.531l-.161-.246c-.039-.059-.077-.118-.113-.17-.213-.312-.439-.609-.671-.9l-.048-.06c-.044-.057-.09-.114-.135-.166-.239-.285-.489-.557-.8-.874l-.161-.163c-.252-.248-.514-.481-.781-.708l-.061-.052c-.078-.066-.157-.133-.239-.2-.246-.2-.5-.385-.745-.557-.146-.1-.291-.2-.448-.3-.219-.142-.442-.276-.663-.4-.2-.116-.4-.229-.615-.336-.182-.094-.368-.181-.555-.268-.256-.117-.514-.23-.777-.333-.155-.061-.311-.117-.466-.171-.293-.1-.589-.2-.9-.287-.115-.032-.23-.061-.346-.09l-.081-.02c-.31-.077-.623-.148-.936-.2-.124-.023-.247-.041-.372-.058l-.1-.015c-.305-.045-.611-.085-.923-.11-.143-.012-.287-.018-.43-.024l-.293-.016c-.157-.01-.314-.02-.473-.02h-5.468V514c0-7.634-3.707-11.345-11.331-11.345H335.091c-7.639,0-11.354,3.711-11.354,11.342v42.614l-8.749-5.051a7.793,7.793,0,1,0-7.794,13.5l10.545,6.088v-3.464l-9.045-5.223a4.792,4.792,0,1,1,4.793-8.3l10.25,5.917v11.064h3V514c0-5.925,2.421-8.342,8.354-8.342H384.55c5.918,0,8.331,2.418,8.331,8.345v63.136H378.472a14.454,14.454,0,0,0-10.324,4.3l-17.289,17.288,1.057,1.06c.651.653,1.333,1.336,1.9,1.9l0,0,1.3,1.294a14.582,14.582,0,0,0,20.569-.02l5.277-5.275h11.925v20.671a14.59,14.59,0,0,0,14.535,14.562l.755,0-.009-3-.747,0a11.582,11.582,0,0,1-11.534-11.562V594.688H379.714l-6.156,6.153a11.579,11.579,0,0,1-16.162.182l-.166-.166s-.988-.986-2.131-2.13l15.174-15.173a11.479,11.479,0,0,1,8.2-3.415h22.876c.091,0,.181.008.271.014l.375.019c.1,0,.206.009.307.017.246.02.487.053.731.089l.119.017c.083.012.165.022.253.039.251.044.5.1.746.163l.086.021c.087.022.173.043.254.065.24.069.477.147.714.23.123.043.245.087.367.134.208.082.413.171.615.265.149.069.3.139.445.214.164.083.322.173.486.267.181.1.358.209.526.319.116.075.23.153.353.241.2.141.4.289.594.442l.236.2c.211.18.418.365.628.571l.162.166c.2.209.4.425.6.655l.139.175c.185.23.365.465.538.716l.254.39c.08.118.16.236.232.36l6.055,10.491h0l9.874,17.1v-6Zm-95.65,27.25H322a6.692,6.692,0,1,1,0-13.384h3.973a6.692,6.692,0,1,1,0,13.384ZM322,614.541a3.692,3.692,0,1,0,0,7.384h3.975a3.692,3.692,0,1,0,0-7.384Zm8.962-23.317a7.846,7.846,0,0,0,.925-.782,7.794,7.794,0,0,0-5.513-13.3H323.1a7.776,7.776,0,0,0-4.588,14.085A7.786,7.786,0,0,0,323.1,605.3h3.279a7.785,7.785,0,0,0,4.583-14.08ZM323.1,580.139h3.274a4.795,4.795,0,0,1,3.391,8.183,4.622,4.622,0,0,1-3.3,1.4h-3.484a4.607,4.607,0,0,1-3.276-1.4,4.793,4.793,0,0,1,3.39-8.182Zm6.665,20.762a4.759,4.759,0,0,1-3.387,1.4h-3.282a4.791,4.791,0,0,1-.056-9.581h3.4a4.792,4.792,0,0,1,3.328,8.178Z" transform="translate(0 -3.254)"/><path class="cls-8" d="M380.956,597.688l-5.277,5.275a14.582,14.582,0,0,1-20.569.02l-1.3-1.294,0,0c-.566-.565-1.248-1.248-1.9-1.9l-1.057-1.06,17.289-17.288a14.454,14.454,0,0,1,10.324-4.3H386.6V514.066H333.022v66.825a7.742,7.742,0,0,1,0,8.094v4.5a7.717,7.717,0,0,1,0,8.08v17.872H386.6V597.688Z" transform="translate(0 -3.254)"/><rect class="cls-3" x="333.021" y="510.811" width="53.581" height="26.342"/><rect class="cls-4" x="333.021" y="537.154" width="53.581" height="26.341"/><path class="cls-5" d="M368.148,581.437a14.454,14.454,0,0,1,10.324-4.3h8.13V566.753H333.021v14.136a7.741,7.741,0,0,1,0,8.1V593.1h23.468Z" transform="translate(0 -3.254)"/><path class="cls-9" d="M984.519,610.985c0,2.947-9.551,6.674-26.249,8.8a233.81,233.81,0,0,1-29.25,1.7h0a233.8,233.8,0,0,1-29.25-1.7c-16.7-2.128-26.251-5.855-26.251-8.8h-3v24c0,4.106,6.018,7.454,17.886,9.953,3.456.727,7.275,1.35,11.365,1.862a239.658,239.658,0,0,0,29.249,1.685h0a239.687,239.687,0,0,0,29.25-1.685c4.09-.512,7.908-1.135,11.364-1.862,11.868-2.5,17.885-5.847,17.885-9.953v-24Z" transform="translate(0 -3.254)"/><path class="cls-3" d="M984.519,610.985c0,2.947-9.551,6.674-26.249,8.8V646.8c4.09-.512,7.908-1.135,11.364-1.862,11.868-2.5,17.885-5.847,17.885-9.953v-24Z" transform="translate(0 -3.254)"/><path class="cls-4" d="M929.02,621.485v27a239.687,239.687,0,0,0,29.25-1.685V619.787A233.81,233.81,0,0,1,929.02,621.485Z" transform="translate(0 -3.254)"/><path class="cls-5" d="M929.019,621.485a233.792,233.792,0,0,1-29.249-1.7V646.8a239.658,239.658,0,0,0,29.249,1.685h0v-27Z" transform="translate(0 -3.254)"/><path d="M969.634,529.031c-10.865-2.286-25.289-3.546-40.615-3.546s-29.749,1.26-40.614,3.546c-11.868,2.5-17.886,5.848-17.886,9.954v72c0,4.106,6.018,7.454,17.886,9.953,10.865,2.287,25.289,3.547,40.614,3.547s29.75-1.26,40.615-3.547c11.868-2.5,17.885-5.847,17.885-9.953v-72C987.519,534.879,981.5,531.53,969.634,529.031Zm-40.615-.546c34.386,0,55.5,6.115,55.5,10.5s-21.114,10.5-55.5,10.5-55.5-6.116-55.5-10.5S894.633,528.485,929.019,528.485Zm0,93c-34.386,0-55.5-6.116-55.5-10.5V591.616q4.333,3.088,14.886,5.322c10.865,2.287,25.289,3.547,40.614,3.547s29.75-1.26,40.615-3.547q10.553-2.221,14.885-5.322v19.369C984.519,615.369,963.405,621.485,929.019,621.485Zm0-24c-34.386,0-55.5-6.116-55.5-10.5V567.616q4.333,3.088,14.886,5.322c10.865,2.287,25.289,3.547,40.614,3.547s29.75-1.26,40.615-3.547q10.553-2.221,14.885-5.322v19.369C984.519,591.369,963.405,597.485,929.019,597.485Zm0-24c-34.386,0-55.5-6.116-55.5-10.5V543.616q4.333,3.088,14.886,5.322c10.865,2.287,25.289,3.547,40.614,3.547s29.75-1.26,40.615-3.547q10.553-2.221,14.885-5.322v19.369C984.519,567.369,963.405,573.485,929.019,573.485Zm-38.4,34.379a1.5,1.5,0,0,1-1.771,1.167c-2.528-.521-4.841-1.093-6.876-1.7a1.5,1.5,0,1,1,.859-2.874c1.952.582,4.18,1.133,6.622,1.636A1.5,1.5,0,0,1,890.623,607.864Zm0-24.073a1.493,1.493,0,0,1-1.771,1.166c-2.521-.519-4.834-1.091-6.875-1.7a1.5,1.5,0,1,1,.857-2.875c1.959.584,4.187,1.135,6.623,1.637A1.5,1.5,0,0,1,890.623,583.791Zm0-23.5a1.5,1.5,0,0,1-1.771,1.166c-2.525-.52-4.838-1.092-6.876-1.7a1.5,1.5,0,1,1,.859-2.874c1.954.583,4.182,1.134,6.622,1.636A1.5,1.5,0,0,1,890.623,560.288Z" transform="translate(0 -3.254)"/><path class="cls-2" d="M602.1,119.936a19.459,19.459,0,0,1,2.694.189A19.219,19.219,0,0,1,624,101.849c.249,0,.5.008.742.018a34.526,34.526,0,0,1,37.742-23A45.5,45.5,0,1,0,586.9,127.25,19.428,19.428,0,0,1,602.1,119.936Z" transform="translate(0 -3.254)"/><path class="cls-3" d="M616.947,103.186A19.179,19.179,0,0,1,624,101.849c.249,0,.5.008.742.018a34.375,34.375,0,0,1,3.156-6.732,7.445,7.445,0,1,0-10.949,8.051Z" transform="translate(0 -3.254)"/><path class="cls-4" d="M607.2,111.722a19.282,19.282,0,0,1,9.75-8.536A7.445,7.445,0,1,1,627.9,95.135a34.719,34.719,0,0,1,9.191-10.015,20.138,20.138,0,1,0-29.89,26.6Z" transform="translate(0 -3.254)"/><path class="cls-5" d="M597.694,120.443a19.359,19.359,0,0,1,7.1-.318,19.1,19.1,0,0,1,2.4-8.4,20.138,20.138,0,1,1,29.89-26.6,34.361,34.361,0,0,1,11.747-5.542,33,33,0,1,0-51.14,40.865Z" transform="translate(0 -3.254)"/><path d="M685.061,160.367H602.1a20.965,20.965,0,1,1,1.331-41.888,20.689,20.689,0,0,1,20.259-18.128,36.028,36.028,0,0,1,69.341,7.24,26.991,26.991,0,0,1-7.97,52.776ZM602.1,121.436a17.966,17.966,0,1,0,0,35.931h82.961a23.99,23.99,0,0,0,6.227-47.156l-.976-.263-.124-1a33.027,33.027,0,0,0-64.029-6.593l-.361,1.057-1.116-.043c-.227-.009-.455-.017-.684-.017A17.693,17.693,0,0,0,606.292,120.2l-.078,1.641-1.627-.227A18.091,18.091,0,0,0,602.1,121.436Z" transform="translate(0 -3.254)"/><path class="cls-6" d="M146.656,556.918a6.451,6.451,0,0,1,5.948-6.429,66.248,66.248,0,0,0-132.05.769c.021,0,.041,0,.061,0a6.45,6.45,0,0,1,.216,12.9,66.25,66.25,0,0,0,131.655-.812A6.453,6.453,0,0,1,146.656,556.918Zm-60.044,6.454a6.454,6.454,0,1,1,6.454-6.454A6.455,6.455,0,0,1,86.612,563.372Z" transform="translate(0 -3.254)"/><path class="cls-4" d="M20.615,551.255a6.451,6.451,0,0,1,6.4,5.664H80.158a6.454,6.454,0,0,1,12.908,0h53.59a6.451,6.451,0,0,1,5.946-6.429,65.846,65.846,0,0,0-7.971-26.2H28.594a65.845,65.845,0,0,0-8.033,26.963Z" transform="translate(0 -3.254)"/><path class="cls-5" d="M146.657,556.929H93.066a6.454,6.454,0,0,1-12.907,0H27.018a6.417,6.417,0,0,1-6.18,7.222A65.808,65.808,0,0,0,29.8,590.368H143.429a65.8,65.8,0,0,0,9.049-27.028A6.454,6.454,0,0,1,146.657,556.929Z" transform="translate(0 -3.254)"/><path class="cls-3" d="M144.631,524.294a66.263,66.263,0,0,0-116.037,0Z" transform="translate(0 -3.254)"/><path d="M1.67,554.733h.067a1.47,1.47,0,1,0-.067,0Z" transform="translate(0 -3.254)"/><path d="M10.76,518.68a1.485,1.485,0,0,0,.705.173,1.5,1.5,0,1,0-1.327-2.206v.008A1.494,1.494,0,0,0,10.76,518.68Z" transform="translate(0 -3.254)"/><path d="M18.7,505.975a1.508,1.508,0,0,0,.922.315,1.5,1.5,0,1,0-.922-.315Z" transform="translate(0 -3.254)"/><path d="M2.195,547.255a1.6,1.6,0,0,0,.2.008,1.473,1.473,0,1,0-.2-.008Z" transform="translate(0 -3.254)"/><path d="M14.442,512.147A1.5,1.5,0,1,0,14,510.078,1.507,1.507,0,0,0,14.442,512.147Z" transform="translate(0 -3.254)"/><path d="M5.2,532.578a1.4,1.4,0,0,0,.457.075,1.513,1.513,0,1,0-.457-.075Z" transform="translate(0 -3.254)"/><path d="M3.373,539.853a1.611,1.611,0,0,0,.33.037,1.507,1.507,0,1,0-.33-.037Z" transform="translate(0 -3.254)"/><path d="M24.492,500.6a1.5,1.5,0,1,0-1.027-.4A1.493,1.493,0,0,0,24.492,500.6Z" transform="translate(0 -3.254)"/><path d="M7.67,525.505a1.444,1.444,0,0,0,.578.12,1.505,1.505,0,1,0-.578-.12Z" transform="translate(0 -3.254)"/><path d="M29.847,495.355a1.513,1.513,0,0,0,1-.383,1.509,1.509,0,1,0-1,.383Z" transform="translate(0 -3.254)"/><path d="M55.227,479.65a1.524,1.524,0,0,0,.548-.1,1.5,1.5,0,1,0-1.943-.847A1.491,1.491,0,0,0,55.227,479.65Z" transform="translate(0 -3.254)"/><path d="M62.315,477.213a1.7,1.7,0,0,0,.427-.06,1.5,1.5,0,1,0-1.867-1.021A1.5,1.5,0,0,0,62.315,477.213Z" transform="translate(0 -3.254)"/><path d="M76.992,474.257a1.317,1.317,0,0,0,.166-.007,1.523,1.523,0,1,0-.166.007Z" transform="translate(0 -3.254)"/><path d="M69.59,475.412a1.915,1.915,0,0,0,.292-.03,1.5,1.5,0,1,0-.592-2.94,1.5,1.5,0,0,0,.3,2.97Z" transform="translate(0 -3.254)"/><path d="M35.645,490.6a1.541,1.541,0,0,0,.9-.292,1.5,1.5,0,1,0-2.1-.308A1.479,1.479,0,0,0,35.645,490.6Z" transform="translate(0 -3.254)"/><path d="M48.388,482.718a1.5,1.5,0,1,0-.676-2.836,1.5,1.5,0,0,0,.676,2.836Z" transform="translate(0 -3.254)"/><path d="M41.84,486.377a1.435,1.435,0,0,0,.788-.224,1.5,1.5,0,1,0-2.063-.488A1.483,1.483,0,0,0,41.84,486.377Z" transform="translate(0 -3.254)"/><path d="M133.4,625.562a1.5,1.5,0,0,0,.848,2.745,1.523,1.523,0,0,0,.84-.262,1.5,1.5,0,0,0-1.688-2.483Z" transform="translate(0 -3.254)"/><path d="M120.56,632.74a1.5,1.5,0,0,0,.615,2.865,1.45,1.45,0,0,0,.608-.127,1.5,1.5,0,0,0-1.223-2.738Z" transform="translate(0 -3.254)"/><path d="M127.137,629.44a1.5,1.5,0,1,0,2.041.577A1.5,1.5,0,0,0,127.137,629.44Z" transform="translate(0 -3.254)"/><path d="M139.295,621.152a1.5,1.5,0,0,0,1.9,2.326h.008a1.5,1.5,0,0,0-1.905-2.326Z" transform="translate(0 -3.254)"/><path d="M99.44,638.973a1.5,1.5,0,0,0,.225,2.984,1.289,1.289,0,0,0,.233-.022,1.5,1.5,0,0,0-.458-2.962Z" transform="translate(0 -3.254)"/><path d="M113.713,635.44a1.5,1.5,0,0,0,.5,2.918,1.417,1.417,0,0,0,.487-.083,1.5,1.5,0,1,0-.982-2.835Z" transform="translate(0 -3.254)"/><path d="M106.655,637.525a1.5,1.5,0,0,0,.36,2.955,1.479,1.479,0,0,0,.36-.045,1.5,1.5,0,0,0-.72-2.91Z" transform="translate(0 -3.254)"/><path d="M160.422,598.36a1.5,1.5,0,1,0,.533,2.055A1.5,1.5,0,0,0,160.422,598.36Z" transform="translate(0 -3.254)"/><path d="M163.82,591.677a1.5,1.5,0,1,0,.713,2A1.5,1.5,0,0,0,163.82,591.677Z" transform="translate(0 -3.254)"/><path d="M166.61,584.71a1.5,1.5,0,0,0-1.043,2.82,1.569,1.569,0,0,0,.518.09,1.5,1.5,0,0,0,.525-2.91Z" transform="translate(0 -3.254)"/><path d="M171.125,562.742a1.5,1.5,0,0,0-.262,2.993h.127a1.5,1.5,0,0,0,.135-2.993Z" transform="translate(0 -3.254)"/><path d="M170.27,570.19a1.5,1.5,0,0,0-.525,2.955,1.62,1.62,0,0,0,.262.023,1.5,1.5,0,0,0,.263-2.978Z" transform="translate(0 -3.254)"/><path d="M144.785,616.24a1.5,1.5,0,1,0,2.123.03A1.5,1.5,0,0,0,144.785,616.24Z" transform="translate(0 -3.254)"/><path d="M149.817,610.87a1.5,1.5,0,0,0,.165,2.115,1.5,1.5,0,0,0,1.951-2.28A1.5,1.5,0,0,0,149.817,610.87Z" transform="translate(0 -3.254)"/><path d="M156.447,604.72a1.5,1.5,0,1,0,.353,2.092A1.507,1.507,0,0,0,156.447,604.72Z" transform="translate(0 -3.254)"/><path d="M168.762,577.533a1.5,1.5,0,0,0-.787,2.894,1.434,1.434,0,0,0,.4.053,1.5,1.5,0,0,0,1.447-1.1v-.008A1.5,1.5,0,0,0,168.762,577.533Z" transform="translate(0 -3.254)"/><path d="M87.267,632.577a7.964,7.964,0,0,0-7.906,7.1A83.321,83.321,0,0,1,3,559.833H0a86.326,86.326,0,0,0,79.624,82.878,7.951,7.951,0,1,0,7.643-10.134Zm0,12.908a4.954,4.954,0,1,1,4.954-4.954A4.96,4.96,0,0,1,87.267,645.485Z" transform="translate(0 -3.254)"/><path d="M12.661,557.709a7.96,7.96,0,0,0,6.751,7.853,67.728,67.728,0,0,0,134.48-.73A7.952,7.952,0,0,0,153.846,549a67.721,67.721,0,0,0-134.584.878A7.96,7.96,0,0,0,12.661,557.709ZM150.839,549.3a7.967,7.967,0,0,0-5.647,6.911H127.386a119.831,119.831,0,0,0-3.957-29.4h20.359A64.324,64.324,0,0,1,150.839,549.3ZM22.429,565.446a7.972,7.972,0,0,0,5.994-6.237H46.57a121.386,121.386,0,0,0,3.992,28.654H29.7A64.254,64.254,0,0,1,22.429,565.446Zm27.144-6.237H79.748a7.979,7.979,0,0,0,6.019,5.5v23.152h-32.1A118.357,118.357,0,0,1,49.573,559.209Zm37.789-7.245a4.959,4.959,0,0,1,4.9,4.245h-.091a5.51,5.51,0,0,1-.047,2.022l0,.032a4.952,4.952,0,1,1-4.764-6.3Zm-1.595,38.9v30.932A64.435,64.435,0,0,1,66.9,618.73a120.148,120.148,0,0,1-12.38-27.867Zm3,0h30.706a118.948,118.948,0,0,1-12.262,27.581,64.336,64.336,0,0,1-18.444,3.319Zm0-3V564.74a7.975,7.975,0,0,0,6.21-5.531h29.394a116.906,116.906,0,0,1-4.042,28.654Zm38.607-28.654H145.5a7.981,7.981,0,0,0,5.4,5.342,64.281,64.281,0,0,1-7.369,23.312H123.432A119.86,119.86,0,0,0,127.374,559.209Zm-2.99-3h-29.1a7.963,7.963,0,0,0-6.514-7.113V526.8h31.559A116.889,116.889,0,0,1,124.384,556.209ZM88.767,523.8V492.372a64.35,64.35,0,0,1,18.047,3.192A118.993,118.993,0,0,1,119.47,523.8Zm-3,0H54.274a120.072,120.072,0,0,1,12.41-28.327,64.436,64.436,0,0,1,19.083-3.136Zm0,3v22.321a7.968,7.968,0,0,0-6.323,7.084h-29.9a118.377,118.377,0,0,1,3.9-29.4Zm-39.224,29.4H28.423a7.972,7.972,0,0,0-6.132-6.273A64.283,64.283,0,0,1,29.417,526.8H50.344A121.4,121.4,0,0,0,46.543,556.209Zm-30.882,1.5a4.954,4.954,0,1,1,4.954,4.953A4.96,4.96,0,0,1,15.661,557.709Zm15.763,33.154H51.391a122.89,122.89,0,0,0,11.1,26.283A65.106,65.106,0,0,1,31.424,590.863Zm80.26,25.88a121.573,121.573,0,0,0,10.921-25.88h19.2A65.108,65.108,0,0,1,111.684,616.743Zm46.38-59.825a4.954,4.954,0,1,1-4.954-4.954A4.959,4.959,0,0,1,158.064,556.918ZM142.092,523.8H122.6a121.665,121.665,0,0,0-11.322-26.58A65.08,65.08,0,0,1,142.092,523.8ZM62.275,497.075A122.912,122.912,0,0,0,51.141,523.8H31.106A65.11,65.11,0,0,1,62.275,497.075Z" transform="translate(0 -3.254)"/><path d="M95.168,471.154a7.969,7.969,0,1,0-.238,2.994,83.316,83.316,0,0,1,75.107,82.806c0,.252-.008.5-.01.755h3c0-.252.01-.5.01-.755A86.323,86.323,0,0,0,95.168,471.154ZM87.267,477a4.954,4.954,0,1,1,4.954-4.954A4.96,4.96,0,0,1,87.267,477Z" transform="translate(0 -3.254)"/><rect class="cls-10" x="562.391" y="237.744" width="156.279" height="40.186"/><path d="M592.351,269.957V249.23h1.983v20.727Z" transform="translate(0 -3.254)"/><path d="M599.516,269.957V255.205h1.927v2.324a10.9,10.9,0,0,1,2.468-1.839,6.447,6.447,0,0,1,3.165-.773,4.349,4.349,0,0,1,3.288,1.149,4.474,4.474,0,0,1,1.1,3.226v10.665h-1.928V259.648a3.286,3.286,0,0,0-.711-2.317,2.923,2.923,0,0,0-2.228-.759,5.412,5.412,0,0,0-2.66.683,12.21,12.21,0,0,0-2.5,1.887v10.815Z" transform="translate(0 -3.254)"/><path d="M614.213,256.859v-1.654H616.8v-5.291h1.928v5.291h3.828v1.654h-3.828v9.266a2.907,2.907,0,0,0,.478,1.8,2.225,2.225,0,0,0,1.846.623h.827a2.5,2.5,0,0,0,.718-.1v1.531c-.228.036-.52.073-.875.109a10.33,10.33,0,0,1-1.039.055,4.246,4.246,0,0,1-3-.855,3.743,3.743,0,0,1-.882-2.782v-9.652Z" transform="translate(0 -3.254)"/><path d="M624.918,262.56a9.153,9.153,0,0,1,.574-3.4,6.991,6.991,0,0,1,1.5-2.379,6.221,6.221,0,0,1,2.071-1.4,6.116,6.116,0,0,1,2.318-.465,5.808,5.808,0,0,1,2.4.493,5.2,5.2,0,0,1,1.9,1.456,7.125,7.125,0,0,1,1.265,2.406,10.8,10.8,0,0,1,.465,3.315v.37H626.846a7.229,7.229,0,0,0,.376,2.431,5.561,5.561,0,0,0,1,1.786,4.241,4.241,0,0,0,3.268,1.5,4.8,4.8,0,0,0,2.7-.693,6.73,6.73,0,0,0,1.894-2.013l1.2.961a7.767,7.767,0,0,1-2.4,2.448,6.459,6.459,0,0,1-3.521.9,6.316,6.316,0,0,1-2.461-.492,5.661,5.661,0,0,1-2.055-1.477,7.487,7.487,0,0,1-1.408-2.406A9.572,9.572,0,0,1,624.918,262.56Zm1.955-1.148h8.654a9.356,9.356,0,0,0-.376-1.932,4.929,4.929,0,0,0-.793-1.567,3.485,3.485,0,0,0-1.271-1.032,3.98,3.98,0,0,0-1.743-.364,4.119,4.119,0,0,0-1.545.3,4.008,4.008,0,0,0-1.347.9,5.115,5.115,0,0,0-1.025,1.52A7.045,7.045,0,0,0,626.873,261.412Z" transform="translate(0 -3.254)"/><path d="M641.051,269.957V255.205h1.927v2.936h.055a7.512,7.512,0,0,1,2.276-2.308,6.425,6.425,0,0,1,3.576-.916h.341l-.191,1.819h-.287a1.175,1.175,0,0,1-.191-.014.878.878,0,0,0-.11-.014,5.509,5.509,0,0,0-3.213.956,6.992,6.992,0,0,0-2.256,2.714v9.579Z" transform="translate(0 -3.254)"/><path d="M652.111,269.957V255.205h1.928v2.324a10.9,10.9,0,0,1,2.468-1.839,6.445,6.445,0,0,1,3.165-.773,4.351,4.351,0,0,1,3.288,1.149,4.478,4.478,0,0,1,1.1,3.226v10.665h-1.927V259.648a3.29,3.29,0,0,0-.711-2.317,2.924,2.924,0,0,0-2.229-.759,5.408,5.408,0,0,0-2.659.683,12.21,12.21,0,0,0-2.5,1.887v10.815Z" transform="translate(0 -3.254)"/><path d="M667.533,262.56a9.173,9.173,0,0,1,.574-3.4,6.991,6.991,0,0,1,1.5-2.379,6.214,6.214,0,0,1,2.072-1.4,6.107,6.107,0,0,1,2.317-.465,5.808,5.808,0,0,1,2.4.493,5.2,5.2,0,0,1,1.9,1.456,7.141,7.141,0,0,1,1.264,2.406,10.8,10.8,0,0,1,.465,3.315v.37H669.461a7.229,7.229,0,0,0,.376,2.431,5.544,5.544,0,0,0,1,1.786,4.237,4.237,0,0,0,3.267,1.5,4.8,4.8,0,0,0,2.7-.693,6.717,6.717,0,0,0,1.894-2.013l1.2.961a7.767,7.767,0,0,1-2.4,2.448,6.457,6.457,0,0,1-3.521.9,6.316,6.316,0,0,1-2.461-.492,5.658,5.658,0,0,1-2.054-1.477,7.489,7.489,0,0,1-1.409-2.406A9.572,9.572,0,0,1,667.533,262.56Zm1.955-1.148h8.655a9.489,9.489,0,0,0-.376-1.932,4.97,4.97,0,0,0-.793-1.567,3.5,3.5,0,0,0-1.272-1.032,3.98,3.98,0,0,0-1.743-.364,4.119,4.119,0,0,0-1.545.3,4.018,4.018,0,0,0-1.347.9,5.115,5.115,0,0,0-1.025,1.52A7.073,7.073,0,0,0,669.488,261.412Z" transform="translate(0 -3.254)"/><path d="M682.094,256.859v-1.654h2.584v-5.291h1.927v5.291h3.829v1.654h-3.829v9.266a2.907,2.907,0,0,0,.479,1.8,2.224,2.224,0,0,0,1.846.623h.827a2.5,2.5,0,0,0,.718-.1v1.531c-.228.036-.52.073-.875.109a10.35,10.35,0,0,1-1.04.055,4.246,4.246,0,0,1-3-.855,3.748,3.748,0,0,1-.881-2.782v-9.652Z" transform="translate(0 -3.254)"/></g></g></svg>